<?xml version="1.0" encoding="utf-8" standalone="no"?>
<!DOCTYPE svg PUBLIC "-//W3C//DTD SVG 1.1//EN"
  "http://www.w3.org/Graphics/SVG/1.1/DTD/svg11.dtd">
<svg xmlns:xlink="http://www.w3.org/1999/xlink" width="504pt" height="288pt" viewBox="0 0 504 288" xmlns="http://www.w3.org/2000/svg" version="1.1">
 <metadata>
  <rdf:RDF xmlns:dc="http://purl.org/dc/elements/1.1/" xmlns:cc="http://creativecommons.org/ns#" xmlns:rdf="http://www.w3.org/1999/02/22-rdf-syntax-ns#">
   <cc:Work>
    <dc:type rdf:resource="http://purl.org/dc/dcmitype/StillImage"/>
    <dc:date>2023-07-07T13:57:30.523475</dc:date>
    <dc:format>image/svg+xml</dc:format>
    <dc:creator>
     <cc:Agent>
      <dc:title>Matplotlib v3.7.1, https://matplotlib.org/</dc:title>
     </cc:Agent>
    </dc:creator>
   </cc:Work>
  </rdf:RDF>
 </metadata>
 <defs>
  <style type="text/css">*{stroke-linejoin: round; stroke-linecap: butt}</style>
 </defs>
 <g id="figure_1">
  <g id="patch_1">
   <path d="M 0 288 
L 504 288 
L 504 0 
L 0 0 
z
" style="fill: #ffffff"/>
  </g>
  <g id="axes_1">
   <g id="patch_2">
    <path d="M 63 135.36 
L 453.6 135.36 
L 453.6 34.56 
L 63 34.56 
z
" style="fill: #ffffff"/>
   </g>
   <g id="matplotlib.axis_1">
    <g id="xtick_1">
     <g id="line2d_1">
      <path d="M 80.754545 135.36 
L 80.754545 34.56 
" clip-path="url(#pab78406b37)" style="fill: none; stroke: #b0b0b0; stroke-width: 0.8; stroke-linecap: square"/>
     </g>
     <g id="line2d_2">
      <defs>
       <path id="m9fb49039bb" d="M 0 0 
L 0 3.5 
" style="stroke: #000000; stroke-width: 0.8"/>
      </defs>
      <g>
       <use xlink:href="#m9fb49039bb" x="80.754545" y="135.36" style="stroke: #000000; stroke-width: 0.8"/>
      </g>
     </g>
     <g id="text_1">
      <!-- 0 -->
      <g transform="translate(77.573295 149.958437) scale(0.1 -0.1)">
       <defs>
        <path id="DejaVuSans-30" d="M 2034 4250 
Q 1547 4250 1301 3770 
Q 1056 3291 1056 2328 
Q 1056 1369 1301 889 
Q 1547 409 2034 409 
Q 2525 409 2770 889 
Q 3016 1369 3016 2328 
Q 3016 3291 2770 3770 
Q 2525 4250 2034 4250 
z
M 2034 4750 
Q 2819 4750 3233 4129 
Q 3647 3509 3647 2328 
Q 3647 1150 3233 529 
Q 2819 -91 2034 -91 
Q 1250 -91 836 529 
Q 422 1150 422 2328 
Q 422 3509 836 4129 
Q 1250 4750 2034 4750 
z
" transform="scale(0.015625)"/>
       </defs>
       <use xlink:href="#DejaVuSans-30"/>
      </g>
     </g>
    </g>
    <g id="xtick_2">
     <g id="line2d_3">
      <path d="M 167.489013 135.36 
L 167.489013 34.56 
" clip-path="url(#pab78406b37)" style="fill: none; stroke: #b0b0b0; stroke-width: 0.8; stroke-linecap: square"/>
     </g>
     <g id="line2d_4">
      <g>
       <use xlink:href="#m9fb49039bb" x="167.489013" y="135.36" style="stroke: #000000; stroke-width: 0.8"/>
      </g>
     </g>
     <g id="text_2">
      <!-- 500 -->
      <g transform="translate(157.945263 149.958437) scale(0.1 -0.1)">
       <defs>
        <path id="DejaVuSans-35" d="M 691 4666 
L 3169 4666 
L 3169 4134 
L 1269 4134 
L 1269 2991 
Q 1406 3038 1543 3061 
Q 1681 3084 1819 3084 
Q 2600 3084 3056 2656 
Q 3513 2228 3513 1497 
Q 3513 744 3044 326 
Q 2575 -91 1722 -91 
Q 1428 -91 1123 -41 
Q 819 9 494 109 
L 494 744 
Q 775 591 1075 516 
Q 1375 441 1709 441 
Q 2250 441 2565 725 
Q 2881 1009 2881 1497 
Q 2881 1984 2565 2268 
Q 2250 2553 1709 2553 
Q 1456 2553 1204 2497 
Q 953 2441 691 2322 
L 691 4666 
z
" transform="scale(0.015625)"/>
       </defs>
       <use xlink:href="#DejaVuSans-35"/>
       <use xlink:href="#DejaVuSans-30" x="63.623047"/>
       <use xlink:href="#DejaVuSans-30" x="127.246094"/>
      </g>
     </g>
    </g>
    <g id="xtick_3">
     <g id="line2d_5">
      <path d="M 254.22348 135.36 
L 254.22348 34.56 
" clip-path="url(#pab78406b37)" style="fill: none; stroke: #b0b0b0; stroke-width: 0.8; stroke-linecap: square"/>
     </g>
     <g id="line2d_6">
      <g>
       <use xlink:href="#m9fb49039bb" x="254.22348" y="135.36" style="stroke: #000000; stroke-width: 0.8"/>
      </g>
     </g>
     <g id="text_3">
      <!-- 1000 -->
      <g transform="translate(241.49848 149.958437) scale(0.1 -0.1)">
       <defs>
        <path id="DejaVuSans-31" d="M 794 531 
L 1825 531 
L 1825 4091 
L 703 3866 
L 703 4441 
L 1819 4666 
L 2450 4666 
L 2450 531 
L 3481 531 
L 3481 0 
L 794 0 
L 794 531 
z
" transform="scale(0.015625)"/>
       </defs>
       <use xlink:href="#DejaVuSans-31"/>
       <use xlink:href="#DejaVuSans-30" x="63.623047"/>
       <use xlink:href="#DejaVuSans-30" x="127.246094"/>
       <use xlink:href="#DejaVuSans-30" x="190.869141"/>
      </g>
     </g>
    </g>
    <g id="xtick_4">
     <g id="line2d_7">
      <path d="M 340.957947 135.36 
L 340.957947 34.56 
" clip-path="url(#pab78406b37)" style="fill: none; stroke: #b0b0b0; stroke-width: 0.8; stroke-linecap: square"/>
     </g>
     <g id="line2d_8">
      <g>
       <use xlink:href="#m9fb49039bb" x="340.957947" y="135.36" style="stroke: #000000; stroke-width: 0.8"/>
      </g>
     </g>
     <g id="text_4">
      <!-- 1500 -->
      <g transform="translate(328.232947 149.958437) scale(0.1 -0.1)">
       <use xlink:href="#DejaVuSans-31"/>
       <use xlink:href="#DejaVuSans-35" x="63.623047"/>
       <use xlink:href="#DejaVuSans-30" x="127.246094"/>
       <use xlink:href="#DejaVuSans-30" x="190.869141"/>
      </g>
     </g>
    </g>
    <g id="xtick_5">
     <g id="line2d_9">
      <path d="M 427.692415 135.36 
L 427.692415 34.56 
" clip-path="url(#pab78406b37)" style="fill: none; stroke: #b0b0b0; stroke-width: 0.8; stroke-linecap: square"/>
     </g>
     <g id="line2d_10">
      <g>
       <use xlink:href="#m9fb49039bb" x="427.692415" y="135.36" style="stroke: #000000; stroke-width: 0.8"/>
      </g>
     </g>
     <g id="text_5">
      <!-- 2000 -->
      <g transform="translate(414.967415 149.958437) scale(0.1 -0.1)">
       <defs>
        <path id="DejaVuSans-32" d="M 1228 531 
L 3431 531 
L 3431 0 
L 469 0 
L 469 531 
Q 828 903 1448 1529 
Q 2069 2156 2228 2338 
Q 2531 2678 2651 2914 
Q 2772 3150 2772 3378 
Q 2772 3750 2511 3984 
Q 2250 4219 1831 4219 
Q 1534 4219 1204 4116 
Q 875 4013 500 3803 
L 500 4441 
Q 881 4594 1212 4672 
Q 1544 4750 1819 4750 
Q 2544 4750 2975 4387 
Q 3406 4025 3406 3419 
Q 3406 3131 3298 2873 
Q 3191 2616 2906 2266 
Q 2828 2175 2409 1742 
Q 1991 1309 1228 531 
z
" transform="scale(0.015625)"/>
       </defs>
       <use xlink:href="#DejaVuSans-32"/>
       <use xlink:href="#DejaVuSans-30" x="63.623047"/>
       <use xlink:href="#DejaVuSans-30" x="127.246094"/>
       <use xlink:href="#DejaVuSans-30" x="190.869141"/>
      </g>
     </g>
    </g>
   </g>
   <g id="matplotlib.axis_2">
    <g id="ytick_1">
     <g id="line2d_11">
      <path d="M 63 129.68074 
L 453.6 129.68074 
" clip-path="url(#pab78406b37)" style="fill: none; stroke: #b0b0b0; stroke-width: 0.8; stroke-linecap: square"/>
     </g>
     <g id="line2d_12">
      <defs>
       <path id="m6bdac5395d" d="M 0 0 
L -3.5 0 
" style="stroke: #000000; stroke-width: 0.8"/>
      </defs>
      <g>
       <use xlink:href="#m6bdac5395d" x="63" y="129.68074" style="stroke: #000000; stroke-width: 0.8"/>
      </g>
     </g>
     <g id="text_6">
      <!-- 50 -->
      <g transform="translate(43.275 133.479959) scale(0.1 -0.1)">
       <use xlink:href="#DejaVuSans-35"/>
       <use xlink:href="#DejaVuSans-30" x="63.623047"/>
      </g>
     </g>
    </g>
    <g id="ytick_2">
     <g id="line2d_13">
      <path d="M 63 102.244703 
L 453.6 102.244703 
" clip-path="url(#pab78406b37)" style="fill: none; stroke: #b0b0b0; stroke-width: 0.8; stroke-linecap: square"/>
     </g>
     <g id="line2d_14">
      <g>
       <use xlink:href="#m6bdac5395d" x="63" y="102.244703" style="stroke: #000000; stroke-width: 0.8"/>
      </g>
     </g>
     <g id="text_7">
      <!-- 100 -->
      <g transform="translate(36.9125 106.043922) scale(0.1 -0.1)">
       <use xlink:href="#DejaVuSans-31"/>
       <use xlink:href="#DejaVuSans-30" x="63.623047"/>
       <use xlink:href="#DejaVuSans-30" x="127.246094"/>
      </g>
     </g>
    </g>
    <g id="ytick_3">
     <g id="line2d_15">
      <path d="M 63 74.808666 
L 453.6 74.808666 
" clip-path="url(#pab78406b37)" style="fill: none; stroke: #b0b0b0; stroke-width: 0.8; stroke-linecap: square"/>
     </g>
     <g id="line2d_16">
      <g>
       <use xlink:href="#m6bdac5395d" x="63" y="74.808666" style="stroke: #000000; stroke-width: 0.8"/>
      </g>
     </g>
     <g id="text_8">
      <!-- 150 -->
      <g transform="translate(36.9125 78.607885) scale(0.1 -0.1)">
       <use xlink:href="#DejaVuSans-31"/>
       <use xlink:href="#DejaVuSans-35" x="63.623047"/>
       <use xlink:href="#DejaVuSans-30" x="127.246094"/>
      </g>
     </g>
    </g>
    <g id="ytick_4">
     <g id="line2d_17">
      <path d="M 63 47.372629 
L 453.6 47.372629 
" clip-path="url(#pab78406b37)" style="fill: none; stroke: #b0b0b0; stroke-width: 0.8; stroke-linecap: square"/>
     </g>
     <g id="line2d_18">
      <g>
       <use xlink:href="#m6bdac5395d" x="63" y="47.372629" style="stroke: #000000; stroke-width: 0.8"/>
      </g>
     </g>
     <g id="text_9">
      <!-- 200 -->
      <g transform="translate(36.9125 51.171848) scale(0.1 -0.1)">
       <use xlink:href="#DejaVuSans-32"/>
       <use xlink:href="#DejaVuSans-30" x="63.623047"/>
       <use xlink:href="#DejaVuSans-30" x="127.246094"/>
      </g>
     </g>
    </g>
   </g>
   <g id="line2d_19">
    <path d="M 80.754545 90.172847 
L 81.101483 88.526685 
L 81.274952 88.526685 
L 81.448421 87.977964 
L 81.62189 88.526685 
L 81.795359 87.429243 
L 82.142297 89.624126 
L 82.315766 89.075406 
L 82.489235 89.075406 
L 82.662704 88.526685 
L 82.836173 87.429243 
L 83.009642 87.977964 
L 83.183111 87.429243 
L 83.356579 86.331802 
L 83.530048 86.331802 
L 83.876986 87.977964 
L 84.050455 86.880523 
L 84.223924 87.429243 
L 84.397393 89.075406 
L 84.744331 87.429243 
L 85.091269 88.526685 
L 85.264738 88.526685 
L 85.438207 89.624126 
L 85.611676 89.075406 
L 85.785145 89.075406 
L 85.958613 89.624126 
L 86.132082 87.977964 
L 86.305551 87.429243 
L 86.47902 89.075406 
L 86.652489 91.819009 
L 86.999427 87.429243 
L 87.172896 89.075406 
L 87.346365 88.526685 
L 87.519834 90.721568 
L 87.693303 90.172847 
L 87.866772 88.526685 
L 88.040241 91.270289 
L 88.21371 90.721568 
L 88.387179 87.977964 
L 88.734116 87.977964 
L 88.907585 86.880523 
L 89.081054 87.429243 
L 89.254523 88.526685 
L 89.601461 87.429243 
L 89.948399 87.429243 
L 90.121868 89.075406 
L 90.468806 85.23436 
L 90.815744 89.075406 
L 91.33615 83.588198 
L 91.509619 86.331802 
L 91.683088 85.783081 
L 91.856557 83.588198 
L 92.030026 83.588198 
L 92.550433 86.880523 
L 92.723902 85.23436 
L 92.897371 84.68564 
L 93.244309 84.68564 
L 93.417778 85.23436 
L 93.764716 84.136919 
L 93.938184 84.136919 
L 94.111653 85.23436 
L 94.285122 87.429243 
L 94.458591 87.429243 
L 94.63206 84.68564 
L 94.805529 85.23436 
L 94.978998 87.977964 
L 95.152467 87.429243 
L 95.325936 85.23436 
L 95.499405 85.23436 
L 95.672874 86.331802 
L 95.846343 86.331802 
L 96.019812 85.23436 
L 96.193281 87.429243 
L 96.36675 87.429243 
L 96.713687 84.136919 
L 96.887156 84.136919 
L 97.060625 85.783081 
L 97.234094 85.783081 
L 97.407563 84.136919 
L 97.754501 85.23436 
L 98.274908 85.23436 
L 98.448377 85.783081 
L 98.621846 85.783081 
L 98.795315 85.23436 
L 98.968784 85.783081 
L 99.315721 83.588198 
L 99.48919 85.23436 
L 99.662659 84.68564 
L 99.836128 82.490757 
L 100.009597 83.039477 
L 100.183066 85.23436 
L 100.356535 84.68564 
L 100.530004 83.039477 
L 100.703473 83.039477 
L 100.876942 83.588198 
L 101.397349 83.588198 
L 101.744287 85.783081 
L 101.917755 85.23436 
L 102.611631 89.075406 
L 102.7851 87.977964 
L 103.478976 87.977964 
L 103.825914 90.721568 
L 104.346321 89.075406 
L 104.693258 92.36773 
L 104.866727 90.721568 
L 105.040196 90.172847 
L 105.213665 90.721568 
L 105.387134 91.819009 
L 105.560603 91.819009 
L 105.734072 90.721568 
L 105.907541 90.721568 
L 106.08101 90.172847 
L 106.254479 87.977964 
L 106.427948 88.526685 
L 106.601417 89.624126 
L 106.948355 86.880523 
L 107.295292 88.526685 
L 107.64223 87.429243 
L 107.815699 87.429243 
L 107.989168 85.23436 
L 108.162637 85.783081 
L 108.336106 88.526685 
L 108.856513 83.588198 
L 109.029982 83.588198 
L 109.203451 84.68564 
L 109.37692 84.136919 
L 109.550389 83.039477 
L 109.723858 83.588198 
L 109.897326 86.880523 
L 110.070795 87.977964 
L 110.417733 83.039477 
L 110.591202 85.23436 
L 110.764671 85.783081 
L 111.111609 83.039477 
L 111.458547 88.526685 
L 111.805485 80.295874 
L 112.325892 85.783081 
L 112.49936 85.23436 
L 112.672829 85.23436 
L 112.846298 85.783081 
L 113.193236 87.429243 
L 113.366705 85.783081 
L 113.540174 85.783081 
L 113.713643 86.880523 
L 113.887112 85.783081 
L 114.060581 87.429243 
L 114.23405 87.429243 
L 114.407519 85.783081 
L 114.580988 87.429243 
L 114.754457 87.977964 
L 115.101395 86.880523 
L 115.274863 84.68564 
L 115.621801 86.331802 
L 115.968739 84.68564 
L 116.142208 84.68564 
L 116.662615 88.526685 
L 117.009553 85.23436 
L 117.183022 86.331802 
L 117.356491 85.783081 
L 117.52996 84.136919 
L 117.703429 84.136919 
L 118.050366 86.880523 
L 118.223835 87.429243 
L 118.397304 86.880523 
L 118.744242 85.23436 
L 118.917711 84.68564 
L 119.09118 84.68564 
L 119.264649 85.23436 
L 119.438118 85.23436 
L 119.611587 85.783081 
L 119.785056 85.23436 
L 119.958525 84.136919 
L 120.131994 85.783081 
L 120.305463 86.331802 
L 120.478931 84.136919 
L 120.6524 84.136919 
L 120.825869 83.588198 
L 120.999338 83.588198 
L 121.172807 85.783081 
L 121.346276 85.783081 
L 121.519745 85.23436 
L 121.866683 87.429243 
L 122.213621 86.331802 
L 122.38709 86.331802 
L 122.734028 89.075406 
L 122.907497 88.526685 
L 123.080965 89.075406 
L 123.254434 89.075406 
L 123.427903 86.880523 
L 123.601372 86.880523 
L 123.774841 88.526685 
L 123.94831 87.977964 
L 124.121779 87.977964 
L 124.295248 90.721568 
L 124.468717 90.721568 
L 124.642186 89.075406 
L 124.815655 89.624126 
L 124.989124 91.270289 
L 125.162593 91.819009 
L 125.336062 91.819009 
L 125.509531 91.270289 
L 125.683 91.270289 
L 126.029937 93.465171 
L 126.376875 89.075406 
L 126.550344 89.075406 
L 126.897282 90.721568 
L 127.417689 89.075406 
L 127.591158 89.624126 
L 127.764627 90.721568 
L 128.111565 86.880523 
L 128.285034 87.429243 
L 128.458502 88.526685 
L 128.631971 87.977964 
L 128.80544 85.23436 
L 128.978909 85.23436 
L 129.152378 87.429243 
L 129.499316 83.039477 
L 130.019723 85.783081 
L 130.193192 85.23436 
L 130.366661 84.136919 
L 130.713599 86.331802 
L 131.060536 84.136919 
L 131.234005 84.136919 
L 131.407474 86.331802 
L 131.580943 85.783081 
L 131.754412 83.588198 
L 132.10135 86.880523 
L 132.621757 84.136919 
L 132.795226 84.68564 
L 132.968695 86.880523 
L 133.315633 85.23436 
L 133.489102 85.783081 
L 133.836039 85.783081 
L 134.182977 88.526685 
L 134.356446 86.331802 
L 134.529915 82.490757 
L 134.703384 81.942036 
L 134.876853 84.68564 
L 135.050322 84.68564 
L 135.223791 82.490757 
L 135.39726 81.942036 
L 135.744198 84.136919 
L 135.917667 84.136919 
L 136.264605 82.490757 
L 136.438073 83.039477 
L 136.611542 83.039477 
L 136.785011 81.942036 
L 137.131949 84.68564 
L 137.305418 83.039477 
L 137.478887 83.039477 
L 137.652356 83.588198 
L 137.999294 85.23436 
L 138.172763 84.136919 
L 138.346232 84.136919 
L 138.519701 85.783081 
L 138.866639 85.783081 
L 139.040107 84.68564 
L 139.213576 81.942036 
L 139.387045 83.588198 
L 139.560514 86.331802 
L 139.733983 86.880523 
L 139.907452 85.23436 
L 140.080921 84.68564 
L 140.427859 88.526685 
L 140.774797 84.136919 
L 141.121735 86.880523 
L 141.468673 86.880523 
L 141.81561 82.490757 
L 142.162548 83.588198 
L 142.509486 82.490757 
L 142.856424 87.977964 
L 143.029893 86.880523 
L 143.203362 84.136919 
L 143.376831 84.68564 
L 143.5503 87.977964 
L 143.723769 88.526685 
L 143.897238 86.331802 
L 144.070707 85.783081 
L 144.417644 87.429243 
L 144.591113 87.429243 
L 144.764582 85.783081 
L 144.938051 87.977964 
L 145.11152 88.526685 
L 145.284989 87.429243 
L 145.458458 87.977964 
L 145.805396 87.977964 
L 145.978865 89.624126 
L 146.152334 88.526685 
L 146.325803 86.331802 
L 146.672741 90.721568 
L 147.019678 87.977964 
L 147.193147 87.977964 
L 147.366616 89.624126 
L 147.713554 88.526685 
L 147.887023 88.526685 
L 148.40743 90.172847 
L 148.580899 90.172847 
L 148.927837 88.526685 
L 149.101306 89.075406 
L 149.274775 88.526685 
L 149.448244 88.526685 
L 149.621712 87.977964 
L 149.96865 89.075406 
L 150.142119 88.526685 
L 150.315588 88.526685 
L 150.489057 87.977964 
L 150.662526 86.880523 
L 150.835995 86.880523 
L 151.182933 89.624126 
L 151.356402 89.075406 
L 151.70334 89.075406 
L 151.876809 87.977964 
L 152.050278 87.977964 
L 152.223747 88.526685 
L 152.397215 87.977964 
L 152.744153 85.783081 
L 153.091091 87.977964 
L 153.438029 84.136919 
L 153.611498 84.68564 
L 153.784967 86.331802 
L 153.958436 86.331802 
L 154.131905 83.039477 
L 154.305374 81.942036 
L 154.652312 85.23436 
L 154.825781 85.23436 
L 155.172718 81.393315 
L 155.519656 86.331802 
L 155.866594 78.649711 
L 156.040063 80.295874 
L 156.213532 84.136919 
L 156.387001 84.68564 
L 156.733939 81.942036 
L 157.080877 83.588198 
L 157.254346 83.039477 
L 157.427815 84.136919 
L 157.601283 83.588198 
L 157.774752 82.490757 
L 158.295159 86.331802 
L 158.642097 83.588198 
L 158.815566 84.136919 
L 158.989035 84.136919 
L 159.162504 83.588198 
L 159.335973 83.588198 
L 159.509442 82.490757 
L 159.85638 86.331802 
L 160.203317 84.136919 
L 160.550255 84.136919 
L 160.897193 86.331802 
L 161.070662 85.783081 
L 161.244131 84.136919 
L 161.591069 88.526685 
L 161.764538 87.977964 
L 162.111476 83.588198 
L 162.458414 87.977964 
L 162.631883 86.331802 
L 162.97882 85.23436 
L 163.152289 85.783081 
L 163.325758 87.977964 
L 163.499227 87.977964 
L 163.672696 86.880523 
L 163.846165 84.68564 
L 164.019634 84.136919 
L 164.366572 87.429243 
L 164.540041 87.977964 
L 164.886979 82.490757 
L 165.233917 90.172847 
L 165.407386 89.624126 
L 165.580854 86.331802 
L 165.754323 85.783081 
L 165.927792 89.624126 
L 166.101261 90.172847 
L 166.621668 86.331802 
L 166.968606 91.819009 
L 167.142075 90.721568 
L 167.315544 87.429243 
L 167.489013 87.429243 
L 167.662482 89.075406 
L 168.00942 86.880523 
L 168.356357 86.880523 
L 168.703295 89.075406 
L 168.876764 89.075406 
L 169.397171 87.429243 
L 169.917578 87.429243 
L 170.091047 85.783081 
L 170.264516 83.039477 
L 170.784923 88.526685 
L 171.13186 83.039477 
L 171.478798 89.624126 
L 171.825736 80.295874 
L 171.999205 81.942036 
L 172.346143 87.429243 
L 172.519612 86.331802 
L 172.693081 83.039477 
L 172.86655 83.039477 
L 173.040019 85.783081 
L 173.213488 86.331802 
L 173.386957 85.783081 
L 173.560425 85.783081 
L 173.733894 84.68564 
L 173.907363 85.783081 
L 174.080832 88.526685 
L 174.254301 87.429243 
L 174.601239 83.588198 
L 174.774708 83.039477 
L 174.948177 84.136919 
L 175.121646 83.588198 
L 175.295115 81.393315 
L 175.468584 81.393315 
L 175.815522 86.880523 
L 175.988991 86.331802 
L 176.162459 86.331802 
L 176.509397 87.977964 
L 176.856335 85.783081 
L 177.029804 87.429243 
L 177.203273 87.977964 
L 177.550211 86.880523 
L 177.72368 85.783081 
L 178.070618 88.526685 
L 178.244087 87.977964 
L 178.417556 86.880523 
L 178.591025 87.429243 
L 178.937962 89.075406 
L 179.111431 86.880523 
L 179.2849 86.331802 
L 179.458369 86.880523 
L 179.805307 85.783081 
L 179.978776 85.783081 
L 180.325714 84.68564 
L 180.499183 83.588198 
L 180.672652 83.588198 
L 180.846121 85.23436 
L 181.01959 84.68564 
L 181.193059 83.588198 
L 181.539996 83.588198 
L 181.713465 85.783081 
L 181.886934 86.331802 
L 182.060403 83.039477 
L 182.233872 82.490757 
L 182.58081 85.783081 
L 182.927748 82.490757 
L 183.101217 83.039477 
L 183.274686 85.23436 
L 183.448155 85.23436 
L 183.621624 84.136919 
L 183.795093 84.68564 
L 184.14203 84.68564 
L 184.488968 83.588198 
L 184.835906 84.68564 
L 185.182844 87.429243 
L 185.356313 86.880523 
L 185.529782 86.880523 
L 185.703251 87.429243 
L 185.87672 87.429243 
L 186.050189 86.880523 
L 186.223658 86.880523 
L 186.570596 87.977964 
L 186.744064 89.075406 
L 187.091002 86.880523 
L 187.43794 90.721568 
L 187.784878 89.624126 
L 187.958347 87.977964 
L 188.305285 90.721568 
L 188.478754 89.624126 
L 188.652223 87.429243 
L 188.825692 87.429243 
L 188.999161 89.624126 
L 189.17263 88.526685 
L 189.519567 90.721568 
L 189.866505 85.783081 
L 190.039974 85.783081 
L 190.386912 87.429243 
L 190.560381 86.331802 
L 190.73385 87.977964 
L 190.907319 91.270289 
L 191.080788 91.270289 
L 191.254257 90.172847 
L 191.601195 90.172847 
L 191.774664 89.624126 
L 191.948133 90.172847 
L 192.121601 89.624126 
L 192.29507 89.624126 
L 192.642008 87.429243 
L 193.162415 91.270289 
L 193.509353 89.075406 
L 193.682822 89.624126 
L 194.02976 91.819009 
L 194.203229 90.721568 
L 194.550167 90.721568 
L 194.897104 87.429243 
L 195.070573 86.880523 
L 195.417511 89.624126 
L 195.764449 84.136919 
L 195.937918 84.68564 
L 196.111387 85.783081 
L 196.284856 85.783081 
L 196.458325 86.331802 
L 196.631794 85.23436 
L 196.978732 87.429243 
L 197.152201 85.23436 
L 197.325669 84.68564 
L 197.499138 84.68564 
L 197.672607 84.136919 
L 197.846076 84.136919 
L 198.019545 85.783081 
L 198.193014 85.783081 
L 198.539952 83.039477 
L 199.060359 85.783081 
L 199.233828 85.23436 
L 199.407297 85.783081 
L 199.927704 85.783081 
L 200.101172 86.331802 
L 200.274641 86.331802 
L 200.44811 85.23436 
L 200.621579 85.23436 
L 200.795048 84.68564 
L 201.141986 85.783081 
L 201.315455 84.136919 
L 201.488924 84.136919 
L 201.662393 85.783081 
L 202.009331 84.68564 
L 202.356269 85.783081 
L 202.529738 84.68564 
L 202.703206 84.68564 
L 202.876675 84.136919 
L 203.223613 84.136919 
L 203.397082 85.783081 
L 203.570551 86.331802 
L 203.74402 85.783081 
L 203.917489 85.783081 
L 204.090958 85.23436 
L 204.437896 83.039477 
L 204.958303 86.331802 
L 205.131772 85.783081 
L 205.478709 86.880523 
L 205.652178 86.880523 
L 205.825647 86.331802 
L 205.999116 86.880523 
L 206.346054 88.526685 
L 206.519523 88.526685 
L 206.692992 89.075406 
L 207.03993 86.880523 
L 207.213399 87.429243 
L 207.560337 87.429243 
L 207.907275 84.68564 
L 208.254212 86.331802 
L 208.427681 84.136919 
L 208.60115 85.23436 
L 208.948088 89.075406 
L 209.295026 87.429243 
L 209.468495 89.075406 
L 209.641964 88.526685 
L 209.815433 86.880523 
L 209.988902 86.880523 
L 210.162371 86.331802 
L 210.33584 85.23436 
L 210.509309 85.23436 
L 210.682777 86.331802 
L 210.856246 86.331802 
L 211.029715 85.783081 
L 211.376653 87.977964 
L 211.550122 87.977964 
L 211.723591 88.526685 
L 211.89706 87.977964 
L 212.243998 89.075406 
L 212.590936 87.977964 
L 212.764405 85.783081 
L 213.111343 89.624126 
L 213.45828 85.783081 
L 213.631749 86.331802 
L 213.805218 87.977964 
L 214.152156 87.977964 
L 214.325625 89.624126 
L 214.499094 88.526685 
L 214.672563 86.331802 
L 215.019501 88.526685 
L 215.19297 88.526685 
L 215.539908 85.783081 
L 215.713377 87.429243 
L 215.886845 90.172847 
L 216.060314 88.526685 
L 216.233783 85.23436 
L 216.580721 89.075406 
L 216.75419 88.526685 
L 216.927659 87.429243 
L 217.101128 87.429243 
L 217.274597 89.075406 
L 217.621535 85.783081 
L 217.795004 86.880523 
L 217.968473 86.880523 
L 218.141942 87.429243 
L 218.315411 86.331802 
L 218.48888 87.429243 
L 218.662348 90.721568 
L 218.835817 89.624126 
L 219.009286 85.23436 
L 219.182755 85.23436 
L 219.356224 89.624126 
L 219.529693 90.172847 
L 219.876631 86.331802 
L 220.0501 88.526685 
L 220.223569 89.075406 
L 220.570507 87.429243 
L 220.917445 87.429243 
L 221.090914 85.783081 
L 221.264382 85.23436 
L 221.61132 86.880523 
L 221.958258 85.783081 
L 222.131727 86.331802 
L 222.305196 86.331802 
L 222.652134 85.23436 
L 222.825603 85.783081 
L 222.999072 84.136919 
L 223.172541 84.136919 
L 223.519479 86.331802 
L 223.866416 85.23436 
L 224.213354 88.526685 
L 224.733761 84.136919 
L 224.90723 86.331802 
L 225.080699 86.880523 
L 225.427637 83.588198 
L 225.601106 84.68564 
L 225.774575 86.880523 
L 225.948044 86.331802 
L 226.294982 83.588198 
L 226.468451 89.075406 
L 226.641919 98.952379 
L 226.815388 97.854937 
L 227.509264 62.73681 
L 227.682733 73.162504 
L 228.029671 119.255046 
L 228.20314 121.449929 
L 228.550078 90.721568 
L 228.897016 63.834251 
L 229.070485 63.834251 
L 229.417422 85.783081 
L 229.76436 101.147262 
L 230.458236 81.393315 
L 230.631705 81.942036 
L 230.978643 87.429243 
L 231.325581 91.270289 
L 231.49905 89.075406 
L 231.672519 85.23436 
L 231.845987 84.136919 
L 232.192925 89.075406 
L 232.366394 89.624126 
L 232.539863 89.075406 
L 233.06027 83.588198 
L 233.233739 84.136919 
L 233.580677 87.429243 
L 233.754146 85.23436 
L 233.927615 85.23436 
L 234.101084 87.429243 
L 234.274553 86.331802 
L 234.448021 83.588198 
L 234.62149 84.136919 
L 234.794959 86.880523 
L 235.141897 80.295874 
L 235.662304 87.977964 
L 236.009242 82.490757 
L 236.182711 83.039477 
L 236.529649 81.393315 
L 237.223524 91.270289 
L 237.570462 84.68564 
L 237.9174 83.039477 
L 238.090869 83.588198 
L 238.611276 91.819009 
L 238.784745 91.819009 
L 238.958214 92.916451 
L 239.131683 91.270289 
L 239.305152 90.721568 
L 239.65209 90.721568 
L 239.825558 91.270289 
L 240.172496 95.111334 
L 240.866372 83.588198 
L 241.039841 83.588198 
L 241.560248 89.075406 
L 241.907186 89.075406 
L 242.080655 90.172847 
L 242.427592 87.977964 
L 242.601061 87.977964 
L 242.77453 89.075406 
L 242.947999 87.977964 
L 243.294937 81.942036 
L 243.641875 77.55227 
L 243.815344 79.198432 
L 244.162282 84.136919 
L 244.335751 83.039477 
L 244.50922 80.295874 
L 244.682689 79.747153 
L 244.856158 78.649711 
L 245.029627 74.808666 
L 245.203095 75.357387 
L 245.376564 79.198432 
L 245.550033 79.198432 
L 245.896971 83.039477 
L 246.07044 82.490757 
L 246.243909 83.039477 
L 246.417378 84.68564 
L 246.764316 84.68564 
L 247.111254 86.880523 
L 247.284723 90.172847 
L 247.458192 90.172847 
L 247.631661 85.783081 
L 247.805129 84.68564 
L 247.978598 86.331802 
L 248.152067 86.880523 
L 248.325536 85.23436 
L 248.499005 86.331802 
L 248.672474 86.331802 
L 248.845943 85.783081 
L 249.192881 88.526685 
L 249.36635 91.819009 
L 249.539819 90.721568 
L 249.713288 88.526685 
L 249.886757 89.075406 
L 250.233695 79.747153 
L 250.580632 87.977964 
L 250.754101 92.916451 
L 250.92757 91.819009 
L 251.274508 84.68564 
L 251.447977 83.039477 
L 251.621446 85.23436 
L 251.794915 85.23436 
L 251.968384 86.880523 
L 252.141853 92.916451 
L 252.66226 83.039477 
L 252.835729 83.588198 
L 253.182666 87.429243 
L 253.529604 93.465171 
L 254.050011 81.393315 
L 254.396949 90.721568 
L 254.743887 83.039477 
L 254.917356 83.039477 
L 255.090825 85.23436 
L 255.437763 92.36773 
L 255.611232 92.36773 
L 255.7847 87.977964 
L 255.958169 78.100991 
L 256.131638 76.454829 
L 256.305107 77.55227 
L 256.478576 79.747153 
L 256.652045 84.68564 
L 256.825514 85.23436 
L 257.172452 96.757496 
L 257.866328 75.906108 
L 258.213266 87.429243 
L 258.560203 84.68564 
L 258.733672 88.526685 
L 258.907141 87.429243 
L 259.254079 82.490757 
L 259.427548 83.588198 
L 259.601017 85.783081 
L 259.774486 89.624126 
L 259.947955 96.757496 
L 260.468362 78.649711 
L 260.641831 76.454829 
L 260.988768 89.075406 
L 261.335706 104.988307 
L 261.509175 99.5011 
L 261.856113 72.065063 
L 262.029582 70.4189 
L 262.549989 94.562613 
L 262.723458 95.660054 
L 262.896927 86.880523 
L 263.070396 85.23436 
L 263.243865 86.331802 
L 263.417334 78.649711 
L 263.590803 78.100991 
L 263.764271 86.880523 
L 263.93774 84.68564 
L 264.284678 75.357387 
L 264.631616 102.793424 
L 265.152023 81.393315 
L 265.325492 84.68564 
L 265.498961 75.906108 
L 265.67243 77.003549 
L 265.845899 99.5011 
L 266.019368 101.695983 
L 266.192837 97.306217 
L 266.366305 86.331802 
L 266.539774 64.931693 
L 267.060181 96.757496 
L 267.23365 97.854937 
L 267.580588 80.295874 
L 267.754057 79.198432 
L 267.927526 75.357387 
L 268.100995 81.393315 
L 268.274464 93.465171 
L 268.447933 91.819009 
L 268.621402 78.649711 
L 268.794871 78.649711 
L 268.968339 88.526685 
L 269.141808 88.526685 
L 269.315277 94.562613 
L 269.488746 114.86528 
L 269.662215 117.608884 
L 270.182622 39.141818 
L 270.356091 58.895765 
L 270.703029 124.193533 
L 270.876498 130.778182 
L 271.396905 66.029134 
L 271.743842 60.541927 
L 272.264249 128.583299 
L 272.437718 115.962722 
L 272.784656 70.4189 
L 273.131594 44.629026 
L 273.478532 90.172847 
L 273.82547 72.613783 
L 273.998939 81.393315 
L 274.172408 74.808666 
L 274.345876 61.639369 
L 274.692814 108.280631 
L 275.38669 73.162504 
L 275.560159 79.747153 
L 275.733628 105.537028 
L 275.907097 111.024235 
L 276.080566 85.783081 
L 276.254035 88.526685 
L 276.427504 97.306217 
L 276.600973 98.403658 
L 276.774442 95.111334 
L 276.94791 80.295874 
L 277.468317 105.537028 
L 277.815255 90.721568 
L 277.988724 88.526685 
L 278.162193 65.480414 
L 278.509131 90.721568 
L 278.6826 79.747153 
L 278.856069 105.537028 
L 279.203007 57.249603 
L 279.549944 72.065063 
L 279.723413 87.429243 
L 279.896882 90.172847 
L 280.070351 83.588198 
L 280.24382 82.490757 
L 280.417289 67.126576 
L 280.764227 97.306217 
L 280.937696 74.808666 
L 281.111165 70.967621 
L 281.284634 89.075406 
L 281.458103 85.23436 
L 281.631572 78.649711 
L 281.97851 106.634469 
L 282.325447 72.613783 
L 282.498916 93.465171 
L 282.672385 98.952379 
L 283.019323 86.331802 
L 283.366261 118.706326 
L 283.886668 75.906108 
L 284.060137 85.783081 
L 284.407075 119.803767 
L 284.754013 81.942036 
L 284.927481 97.854937 
L 285.10095 92.916451 
L 285.274419 81.393315 
L 285.447888 81.393315 
L 285.621357 77.003549 
L 285.794826 76.454829 
L 285.968295 98.403658 
L 286.141764 101.147262 
L 286.315233 66.029134 
L 286.488702 60.541927 
L 286.662171 75.906108 
L 286.83564 75.357387 
L 287.009109 81.393315 
L 287.182578 81.942036 
L 287.529515 51.213674 
L 287.702984 55.05472 
L 288.049922 92.36773 
L 288.223391 93.465171 
L 288.570329 62.188089 
L 288.743798 78.649711 
L 288.917267 73.162504 
L 289.090736 58.895765 
L 289.437674 82.490757 
L 289.611143 60.541927 
L 289.784612 70.967621 
L 289.958081 109.378073 
L 290.131549 92.916451 
L 290.305018 62.73681 
L 290.478487 58.347044 
L 290.998894 105.537028 
L 291.172363 122.547371 
L 291.519301 69.321459 
L 291.69277 84.68564 
L 291.866239 59.444486 
L 292.039708 70.4189 
L 292.213177 111.024235 
L 292.386646 109.378073 
L 292.560115 73.711225 
L 292.733584 75.357387 
L 292.907052 97.854937 
L 293.25399 106.085749 
L 293.427459 104.988307 
L 293.600928 94.562613 
L 293.774397 92.36773 
L 293.947866 95.660054 
L 294.121335 87.977964 
L 294.294804 97.306217 
L 294.468273 117.608884 
L 294.815211 61.639369 
L 295.162149 102.244703 
L 295.335618 102.244703 
L 295.682555 83.039477 
L 295.856024 77.55227 
L 296.029493 92.916451 
L 296.202962 97.306217 
L 296.376431 95.111334 
L 296.5499 108.829352 
L 296.723369 101.695983 
L 297.070307 46.823909 
L 297.243776 56.152161 
L 297.417245 87.429243 
L 297.764183 104.439586 
L 298.11112 55.60344 
L 298.284589 74.808666 
L 298.458058 59.444486 
L 298.631527 75.357387 
L 298.804996 106.634469 
L 299.151934 63.834251 
L 299.325403 95.660054 
L 299.672341 58.347044 
L 300.019279 116.511443 
L 300.192748 121.449929 
L 300.539686 69.321459 
L 300.713155 78.100991 
L 300.886623 76.454829 
L 301.060092 102.793424 
L 301.233561 103.890866 
L 301.40703 72.613783 
L 301.580499 101.147262 
L 301.753968 95.660054 
L 301.927437 64.382972 
L 302.274375 115.962722 
L 302.621313 57.798323 
L 302.794782 86.880523 
L 302.968251 97.306217 
L 303.14172 65.480414 
L 303.315189 87.977964 
L 303.488657 92.916451 
L 303.662126 55.05472 
L 303.835595 64.382972 
L 304.009064 100.04982 
L 304.529471 86.331802 
L 304.876409 50.116233 
L 305.049878 47.372629 
L 305.223347 79.198432 
L 305.396816 88.526685 
L 305.570285 80.295874 
L 305.743754 95.660054 
L 306.090691 65.480414 
L 306.26416 80.295874 
L 306.437629 85.23436 
L 306.611098 86.880523 
L 306.784567 109.378073 
L 306.958036 116.511443 
L 307.131505 79.747153 
L 307.304974 75.357387 
L 307.478443 106.634469 
L 307.825381 90.172847 
L 307.99885 106.085749 
L 308.172319 86.331802 
L 308.519257 118.706326 
L 308.692725 97.306217 
L 308.866194 113.219118 
L 309.213132 92.916451 
L 309.386601 107.731911 
L 309.56007 71.516342 
L 309.907008 98.403658 
L 310.080477 78.100991 
L 310.253946 99.5011 
L 310.427415 78.649711 
L 310.600884 77.55227 
L 310.774353 109.926794 
L 311.121291 51.762395 
L 311.29476 51.213674 
L 311.641697 92.36773 
L 311.815166 79.198432 
L 311.988635 49.567512 
L 312.162104 60.541927 
L 312.335573 94.562613 
L 312.509042 72.065063 
L 312.682511 76.454829 
L 312.85598 102.244703 
L 313.202918 71.516342 
L 313.376387 46.823909 
L 313.723325 93.465171 
L 313.896794 84.68564 
L 314.243731 94.562613 
L 314.590669 83.588198 
L 314.937607 113.219118 
L 315.111076 100.04982 
L 315.284545 76.454829 
L 315.458014 85.783081 
L 315.631483 106.085749 
L 315.804952 81.942036 
L 315.978421 80.295874 
L 316.15189 114.86528 
L 316.325359 112.121677 
L 316.498828 73.711225 
L 316.845765 103.890866 
L 317.019234 68.772738 
L 317.192703 81.393315 
L 317.366172 113.219118 
L 317.71311 81.942036 
L 317.886579 89.075406 
L 318.060048 62.73681 
L 318.233517 68.772738 
L 318.406986 104.439586 
L 318.580455 77.003549 
L 318.753924 68.224017 
L 318.927393 100.04982 
L 319.274331 77.003549 
L 319.447799 77.55227 
L 319.621268 75.906108 
L 319.794737 87.429243 
L 319.968206 67.126576 
L 320.141675 81.393315 
L 320.315144 79.747153 
L 320.488613 53.408557 
L 320.835551 111.572956 
L 321.182489 63.834251 
L 321.355958 63.834251 
L 321.529427 84.136919 
L 321.702896 89.075406 
L 321.876365 90.172847 
L 322.049833 106.634469 
L 322.396771 71.516342 
L 322.57024 84.68564 
L 322.743709 84.136919 
L 322.917178 109.926794 
L 323.090647 103.342145 
L 323.264116 67.126576 
L 323.611054 101.147262 
L 323.784523 89.624126 
L 323.957992 87.429243 
L 324.131461 71.516342 
L 324.478399 93.465171 
L 324.651867 88.526685 
L 324.825336 111.572956 
L 324.998805 92.916451 
L 325.172274 58.347044 
L 325.519212 111.572956 
L 325.692681 81.393315 
L 325.86615 76.454829 
L 326.039619 99.5011 
L 326.213088 70.967621 
L 326.386557 79.747153 
L 326.560026 102.793424 
L 326.733495 97.854937 
L 326.906964 103.890866 
L 327.253901 73.711225 
L 327.42737 90.172847 
L 327.600839 76.454829 
L 327.774308 92.36773 
L 327.947777 97.854937 
L 328.121246 68.772738 
L 328.468184 98.952379 
L 328.641653 100.04982 
L 328.815122 107.731911 
L 329.16206 66.577855 
L 329.508998 75.906108 
L 329.855936 107.731911 
L 330.202873 98.403658 
L 330.549811 57.798323 
L 330.896749 109.926794 
L 331.070218 75.906108 
L 331.243687 64.931693 
L 331.417156 91.270289 
L 331.590625 89.624126 
L 331.764094 79.198432 
L 331.937563 104.439586 
L 332.111032 101.147262 
L 332.284501 66.577855 
L 332.45797 65.480414 
L 332.631438 95.660054 
L 332.804907 98.403658 
L 332.978376 79.198432 
L 333.151845 104.439586 
L 333.325314 109.378073 
L 333.498783 68.772738 
L 333.672252 64.382972 
L 333.845721 98.403658 
L 334.01919 106.085749 
L 334.192659 78.649711 
L 334.366128 75.906108 
L 334.539597 94.562613 
L 334.713066 89.624126 
L 334.886535 72.065063 
L 335.060004 78.100991 
L 335.233472 108.280631 
L 335.58041 58.895765 
L 335.927348 114.31656 
L 336.447755 59.444486 
L 336.794693 77.55227 
L 337.141631 111.572956 
L 337.3151 83.588198 
L 337.488569 83.588198 
L 337.662038 90.172847 
L 337.835507 57.798323 
L 338.008975 73.711225 
L 338.182444 104.988307 
L 338.355913 73.162504 
L 338.529382 68.772738 
L 338.702851 103.342145 
L 339.049789 64.931693 
L 339.223258 96.208775 
L 339.396727 102.793424 
L 339.743665 60.541927 
L 340.090603 90.721568 
L 340.264072 77.55227 
L 340.437541 96.208775 
L 340.611009 101.147262 
L 340.784478 69.321459 
L 340.957947 58.895765 
L 341.131416 69.87018 
L 341.478354 119.803767 
L 341.825292 64.931693 
L 341.998761 79.747153 
L 342.345699 63.834251 
L 342.519168 98.952379 
L 342.692637 108.280631 
L 343.039575 59.444486 
L 343.213043 75.906108 
L 343.386512 105.537028 
L 343.559981 108.829352 
L 344.080388 64.931693 
L 344.253857 66.029134 
L 344.427326 75.357387 
L 344.600795 102.244703 
L 344.774264 98.403658 
L 344.947733 77.003549 
L 345.121202 89.624126 
L 345.294671 88.526685 
L 345.46814 79.747153 
L 345.641609 88.526685 
L 345.815077 89.075406 
L 346.162015 105.537028 
L 346.335484 86.880523 
L 346.682422 73.162504 
L 346.855891 76.454829 
L 347.02936 104.439586 
L 347.202829 103.342145 
L 347.376298 92.916451 
L 347.549767 73.711225 
L 347.723236 68.772738 
L 347.896705 103.342145 
L 348.070174 114.86528 
L 348.243643 87.429243 
L 348.417112 78.100991 
L 348.59058 78.100991 
L 348.764049 62.73681 
L 348.937518 74.808666 
L 349.110987 102.793424 
L 349.284456 102.793424 
L 349.457925 90.172847 
L 349.631394 86.331802 
L 349.804863 72.613783 
L 350.151801 96.208775 
L 350.32527 73.162504 
L 350.498739 85.783081 
L 350.672208 108.829352 
L 351.019146 79.198432 
L 351.192614 81.393315 
L 351.366083 79.198432 
L 351.539552 78.649711 
L 351.88649 105.537028 
L 352.233428 78.649711 
L 352.406897 69.87018 
L 352.753835 114.86528 
L 353.100773 62.188089 
L 353.274242 94.562613 
L 353.447711 98.952379 
L 353.62118 72.065063 
L 354.141586 96.757496 
L 354.315055 95.111334 
L 354.488524 73.162504 
L 354.661993 86.331802 
L 354.835462 84.68564 
L 355.008931 73.162504 
L 355.1824 91.270289 
L 355.355869 72.065063 
L 355.702807 102.793424 
L 355.876276 63.285531 
L 356.049745 75.906108 
L 356.223214 107.731911 
L 356.570151 81.393315 
L 356.917089 77.003549 
L 357.090558 82.490757 
L 357.264027 75.906108 
L 357.610965 108.829352 
L 357.784434 92.36773 
L 357.957903 63.285531 
L 358.304841 99.5011 
L 358.47831 83.588198 
L 358.651779 89.075406 
L 358.825248 102.244703 
L 359.345654 69.321459 
L 359.519123 71.516342 
L 359.692592 102.793424 
L 359.866061 91.819009 
L 360.03953 64.931693 
L 360.386468 98.952379 
L 360.559937 83.039477 
L 360.906875 101.147262 
L 361.253813 70.4189 
L 361.427282 65.480414 
L 361.774219 96.208775 
L 361.947688 93.465171 
L 362.468095 76.454829 
L 362.641564 81.942036 
L 362.815033 98.403658 
L 363.161971 83.039477 
L 363.33544 92.36773 
L 363.508909 86.880523 
L 363.682378 63.834251 
L 363.855847 73.162504 
L 364.029316 101.695983 
L 364.376253 72.613783 
L 364.549722 103.342145 
L 364.723191 97.306217 
L 364.89666 75.357387 
L 365.070129 95.111334 
L 365.243598 89.624126 
L 365.417067 80.295874 
L 365.590536 87.977964 
L 365.764005 69.87018 
L 366.110943 93.465171 
L 366.284412 70.967621 
L 366.63135 90.721568 
L 366.804819 100.04982 
L 366.978288 103.342145 
L 367.151756 66.577855 
L 367.325225 79.747153 
L 367.498694 108.829352 
L 367.845632 77.55227 
L 368.019101 81.393315 
L 368.19257 77.55227 
L 368.539508 90.721568 
L 368.712977 89.624126 
L 368.886446 81.393315 
L 369.233384 114.31656 
L 369.406853 78.649711 
L 369.580322 79.198432 
L 369.75379 98.403658 
L 369.927259 66.577855 
L 370.274197 98.952379 
L 370.447666 83.039477 
L 370.621135 94.562613 
L 370.794604 96.757496 
L 370.968073 87.429243 
L 371.141542 85.23436 
L 371.315011 88.526685 
L 371.48848 101.695983 
L 371.661949 86.880523 
L 372.182356 72.613783 
L 372.355824 101.695983 
L 372.529293 92.916451 
L 372.702762 90.721568 
L 372.876231 81.942036 
L 373.0497 66.029134 
L 373.223169 96.757496 
L 373.396638 104.439586 
L 373.743576 86.880523 
L 373.917045 71.516342 
L 374.090514 72.613783 
L 374.263983 89.075406 
L 374.610921 73.162504 
L 374.78439 108.829352 
L 375.131327 83.039477 
L 375.304796 94.562613 
L 375.478265 75.906108 
L 375.651734 77.55227 
L 375.825203 98.952379 
L 375.998672 93.465171 
L 376.172141 80.295874 
L 376.34561 79.198432 
L 376.692548 98.403658 
L 377.039486 78.649711 
L 377.386424 96.208775 
L 377.559893 79.198432 
L 377.733361 73.162504 
L 377.90683 92.36773 
L 378.080299 88.526685 
L 378.253768 89.624126 
L 378.427237 110.475514 
L 378.600706 79.198432 
L 378.774175 68.772738 
L 378.947644 96.757496 
L 379.121113 77.55227 
L 379.294582 84.136919 
L 379.468051 116.511443 
L 379.814989 75.357387 
L 379.988458 88.526685 
L 380.161927 72.613783 
L 380.335395 72.065063 
L 380.508864 95.111334 
L 380.682333 101.695983 
L 380.855802 97.854937 
L 381.20274 81.393315 
L 381.376209 83.039477 
L 381.549678 86.880523 
L 381.723147 86.331802 
L 381.896616 76.454829 
L 382.243554 98.952379 
L 382.417023 72.065063 
L 382.590492 71.516342 
L 383.110898 112.121677 
L 383.284367 95.660054 
L 383.457836 62.73681 
L 383.631305 63.834251 
L 383.978243 111.572956 
L 384.325181 78.649711 
L 384.49865 83.588198 
L 384.672119 85.23436 
L 384.845588 78.649711 
L 385.019057 80.295874 
L 385.192526 105.537028 
L 385.365995 104.439586 
L 385.539464 71.516342 
L 385.712932 64.382972 
L 386.05987 111.572956 
L 386.406808 68.772738 
L 386.753746 98.952379 
L 387.100684 80.295874 
L 387.274153 86.331802 
L 387.447622 75.906108 
L 387.621091 97.854937 
L 387.79456 100.04982 
L 387.968029 80.295874 
L 388.141498 105.537028 
L 388.488435 64.931693 
L 388.661904 95.111334 
L 388.835373 78.649711 
L 389.008842 77.55227 
L 389.182311 111.024235 
L 389.529249 69.87018 
L 389.876187 97.854937 
L 390.049656 97.854937 
L 390.223125 77.003549 
L 390.396594 70.4189 
L 390.570063 95.660054 
L 390.743532 97.854937 
L 391.263938 73.162504 
L 391.610876 109.926794 
L 391.784345 106.085749 
L 391.957814 84.136919 
L 392.131283 84.136919 
L 392.478221 75.357387 
L 392.825159 91.819009 
L 392.998628 98.952379 
L 393.345566 71.516342 
L 393.692503 90.172847 
L 393.865972 84.136919 
L 394.21291 103.342145 
L 394.559848 64.382972 
L 394.733317 78.649711 
L 394.906786 73.711225 
L 395.080255 75.357387 
L 395.253724 104.988307 
L 395.427193 92.36773 
L 395.600662 63.285531 
L 395.9476 85.783081 
L 396.121069 82.490757 
L 396.294537 96.208775 
L 396.468006 100.04982 
L 396.988413 67.126576 
L 397.335351 90.172847 
L 397.50882 99.5011 
L 397.682289 79.747153 
L 397.855758 77.55227 
L 398.202696 97.306217 
L 398.549634 90.172847 
L 398.723103 90.172847 
L 398.896571 68.224017 
L 399.07004 61.639369 
L 399.416978 95.660054 
L 399.590447 102.793424 
L 399.937385 69.321459 
L 400.110854 81.393315 
L 400.284323 82.490757 
L 400.457792 85.23436 
L 400.631261 96.208775 
L 400.978199 71.516342 
L 401.325137 94.562613 
L 401.672074 79.198432 
L 401.845543 96.208775 
L 402.192481 88.526685 
L 402.36595 89.624126 
L 402.539419 77.55227 
L 402.712888 78.649711 
L 403.059826 84.68564 
L 403.233295 93.465171 
L 403.406764 92.916451 
L 403.753702 81.942036 
L 404.10064 91.270289 
L 404.274108 83.588198 
L 404.447577 100.04982 
L 404.621046 98.952379 
L 404.967984 74.808666 
L 405.141453 63.834251 
L 405.314922 79.198432 
L 405.66186 114.86528 
L 406.008798 82.490757 
L 406.182267 86.880523 
L 406.355736 81.393315 
L 406.529205 81.942036 
L 406.702674 73.711225 
L 406.876142 78.100991 
L 407.049611 101.695983 
L 407.22308 95.111334 
L 407.396549 67.126576 
L 407.570018 75.906108 
L 407.743487 96.208775 
L 407.916956 93.465171 
L 408.090425 97.854937 
L 408.263894 96.208775 
L 408.610832 72.613783 
L 408.784301 78.100991 
L 408.95777 101.147262 
L 409.131239 94.562613 
L 409.304708 75.357387 
L 409.478176 95.111334 
L 409.651645 89.624126 
L 409.825114 77.003549 
L 409.998583 95.111334 
L 410.172052 98.403658 
L 410.345521 92.36773 
L 410.51899 78.100991 
L 410.692459 73.711225 
L 411.039397 103.890866 
L 411.212866 97.854937 
L 411.386335 74.808666 
L 411.733273 96.208775 
L 411.906742 74.808666 
L 412.080211 76.454829 
L 412.253679 108.280631 
L 412.427148 112.670397 
L 412.600617 79.747153 
L 412.774086 70.4189 
L 412.947555 85.23436 
L 413.121024 90.172847 
L 413.294493 77.55227 
L 413.467962 76.454829 
L 413.641431 97.854937 
L 413.988369 82.490757 
L 414.161838 81.942036 
L 414.335307 74.808666 
L 414.508776 103.890866 
L 414.682245 103.890866 
L 414.855713 68.772738 
L 415.202651 72.613783 
L 415.37612 78.649711 
L 415.549589 105.537028 
L 415.723058 102.244703 
L 415.896527 74.808666 
L 416.069996 77.003549 
L 416.243465 83.588198 
L 416.416934 75.357387 
L 416.590403 75.906108 
L 416.763872 84.136919 
L 416.937341 111.024235 
L 417.11081 103.342145 
L 417.284279 83.588198 
L 417.457747 83.588198 
L 417.631216 63.285531 
L 417.978154 90.721568 
L 418.151623 78.100991 
L 418.498561 108.280631 
L 418.845499 79.747153 
L 419.018968 88.526685 
L 419.192437 90.721568 
L 419.365906 90.172847 
L 419.712844 73.162504 
L 419.886313 78.100991 
L 420.059781 73.711225 
L 420.406719 97.306217 
L 420.580188 93.465171 
L 420.753657 97.306217 
L 420.927126 93.465171 
L 421.100595 73.162504 
L 421.274064 68.772738 
L 421.447533 78.649711 
L 421.621002 97.854937 
L 421.794471 104.439586 
L 421.96794 81.942036 
L 422.141409 78.649711 
L 422.314878 86.331802 
L 422.488347 86.331802 
L 422.661816 83.588198 
L 422.835284 85.783081 
L 423.008753 105.537028 
L 423.182222 94.562613 
L 423.355691 72.613783 
L 423.52916 74.808666 
L 423.876098 111.024235 
L 424.223036 65.480414 
L 424.743443 99.5011 
L 424.916912 89.624126 
L 425.26385 92.36773 
L 425.437318 81.393315 
L 425.610787 79.747153 
L 425.784256 81.942036 
L 425.957725 86.331802 
L 426.131194 77.003549 
L 426.304663 77.55227 
L 426.478132 102.793424 
L 426.651601 98.952379 
L 426.82507 70.4189 
L 427.172008 110.475514 
L 427.518946 76.454829 
L 427.692415 79.747153 
L 428.039352 93.465171 
L 428.212821 78.649711 
L 428.38629 73.711225 
L 428.733228 87.977964 
L 428.906697 78.649711 
L 429.080166 85.783081 
L 429.253635 114.86528 
L 429.600573 65.480414 
L 429.774042 86.331802 
L 429.947511 91.819009 
L 430.12098 73.711225 
L 430.294449 73.162504 
L 430.467918 84.136919 
L 430.814855 90.721568 
L 430.988324 98.403658 
L 431.855669 79.747153 
L 432.376076 85.23436 
L 432.549545 94.562613 
L 432.723014 94.562613 
L 432.896483 86.331802 
L 433.069952 90.172847 
L 433.243421 104.988307 
L 433.416889 109.378073 
L 433.590358 82.490757 
L 433.763827 78.649711 
L 433.937296 90.721568 
L 434.110765 75.357387 
L 434.457703 91.270289 
L 434.631172 77.55227 
L 434.804641 82.490757 
L 434.97811 108.829352 
L 435.151579 104.439586 
L 435.325048 87.429243 
L 435.498517 83.588198 
L 435.671986 70.967621 
L 435.845455 88.526685 
L 435.845455 88.526685 
" clip-path="url(#pab78406b37)" style="fill: none; stroke: #1f77b4; stroke-width: 1.5; stroke-linecap: square"/>
   </g>
   <g id="patch_3">
    <path d="M 63 135.36 
L 63 34.56 
" style="fill: none; stroke: #000000; stroke-width: 0.8; stroke-linejoin: miter; stroke-linecap: square"/>
   </g>
   <g id="patch_4">
    <path d="M 453.6 135.36 
L 453.6 34.56 
" style="fill: none; stroke: #000000; stroke-width: 0.8; stroke-linejoin: miter; stroke-linecap: square"/>
   </g>
   <g id="patch_5">
    <path d="M 63 135.36 
L 453.6 135.36 
" style="fill: none; stroke: #000000; stroke-width: 0.8; stroke-linejoin: miter; stroke-linecap: square"/>
   </g>
   <g id="patch_6">
    <path d="M 63 34.56 
L 453.6 34.56 
" style="fill: none; stroke: #000000; stroke-width: 0.8; stroke-linejoin: miter; stroke-linecap: square"/>
   </g>
   <g id="text_10">
    <!-- Original Frame -->
    <g transform="translate(214.21875 28.56) scale(0.12 -0.12)">
     <defs>
      <path id="DejaVuSans-4f" d="M 2522 4238 
Q 1834 4238 1429 3725 
Q 1025 3213 1025 2328 
Q 1025 1447 1429 934 
Q 1834 422 2522 422 
Q 3209 422 3611 934 
Q 4013 1447 4013 2328 
Q 4013 3213 3611 3725 
Q 3209 4238 2522 4238 
z
M 2522 4750 
Q 3503 4750 4090 4092 
Q 4678 3434 4678 2328 
Q 4678 1225 4090 567 
Q 3503 -91 2522 -91 
Q 1538 -91 948 565 
Q 359 1222 359 2328 
Q 359 3434 948 4092 
Q 1538 4750 2522 4750 
z
" transform="scale(0.015625)"/>
      <path id="DejaVuSans-72" d="M 2631 2963 
Q 2534 3019 2420 3045 
Q 2306 3072 2169 3072 
Q 1681 3072 1420 2755 
Q 1159 2438 1159 1844 
L 1159 0 
L 581 0 
L 581 3500 
L 1159 3500 
L 1159 2956 
Q 1341 3275 1631 3429 
Q 1922 3584 2338 3584 
Q 2397 3584 2469 3576 
Q 2541 3569 2628 3553 
L 2631 2963 
z
" transform="scale(0.015625)"/>
      <path id="DejaVuSans-69" d="M 603 3500 
L 1178 3500 
L 1178 0 
L 603 0 
L 603 3500 
z
M 603 4863 
L 1178 4863 
L 1178 4134 
L 603 4134 
L 603 4863 
z
" transform="scale(0.015625)"/>
      <path id="DejaVuSans-67" d="M 2906 1791 
Q 2906 2416 2648 2759 
Q 2391 3103 1925 3103 
Q 1463 3103 1205 2759 
Q 947 2416 947 1791 
Q 947 1169 1205 825 
Q 1463 481 1925 481 
Q 2391 481 2648 825 
Q 2906 1169 2906 1791 
z
M 3481 434 
Q 3481 -459 3084 -895 
Q 2688 -1331 1869 -1331 
Q 1566 -1331 1297 -1286 
Q 1028 -1241 775 -1147 
L 775 -588 
Q 1028 -725 1275 -790 
Q 1522 -856 1778 -856 
Q 2344 -856 2625 -561 
Q 2906 -266 2906 331 
L 2906 616 
Q 2728 306 2450 153 
Q 2172 0 1784 0 
Q 1141 0 747 490 
Q 353 981 353 1791 
Q 353 2603 747 3093 
Q 1141 3584 1784 3584 
Q 2172 3584 2450 3431 
Q 2728 3278 2906 2969 
L 2906 3500 
L 3481 3500 
L 3481 434 
z
" transform="scale(0.015625)"/>
      <path id="DejaVuSans-6e" d="M 3513 2113 
L 3513 0 
L 2938 0 
L 2938 2094 
Q 2938 2591 2744 2837 
Q 2550 3084 2163 3084 
Q 1697 3084 1428 2787 
Q 1159 2491 1159 1978 
L 1159 0 
L 581 0 
L 581 3500 
L 1159 3500 
L 1159 2956 
Q 1366 3272 1645 3428 
Q 1925 3584 2291 3584 
Q 2894 3584 3203 3211 
Q 3513 2838 3513 2113 
z
" transform="scale(0.015625)"/>
      <path id="DejaVuSans-61" d="M 2194 1759 
Q 1497 1759 1228 1600 
Q 959 1441 959 1056 
Q 959 750 1161 570 
Q 1363 391 1709 391 
Q 2188 391 2477 730 
Q 2766 1069 2766 1631 
L 2766 1759 
L 2194 1759 
z
M 3341 1997 
L 3341 0 
L 2766 0 
L 2766 531 
Q 2569 213 2275 61 
Q 1981 -91 1556 -91 
Q 1019 -91 701 211 
Q 384 513 384 1019 
Q 384 1609 779 1909 
Q 1175 2209 1959 2209 
L 2766 2209 
L 2766 2266 
Q 2766 2663 2505 2880 
Q 2244 3097 1772 3097 
Q 1472 3097 1187 3025 
Q 903 2953 641 2809 
L 641 3341 
Q 956 3463 1253 3523 
Q 1550 3584 1831 3584 
Q 2591 3584 2966 3190 
Q 3341 2797 3341 1997 
z
" transform="scale(0.015625)"/>
      <path id="DejaVuSans-6c" d="M 603 4863 
L 1178 4863 
L 1178 0 
L 603 0 
L 603 4863 
z
" transform="scale(0.015625)"/>
      <path id="DejaVuSans-20" transform="scale(0.015625)"/>
      <path id="DejaVuSans-46" d="M 628 4666 
L 3309 4666 
L 3309 4134 
L 1259 4134 
L 1259 2759 
L 3109 2759 
L 3109 2228 
L 1259 2228 
L 1259 0 
L 628 0 
L 628 4666 
z
" transform="scale(0.015625)"/>
      <path id="DejaVuSans-6d" d="M 3328 2828 
Q 3544 3216 3844 3400 
Q 4144 3584 4550 3584 
Q 5097 3584 5394 3201 
Q 5691 2819 5691 2113 
L 5691 0 
L 5113 0 
L 5113 2094 
Q 5113 2597 4934 2840 
Q 4756 3084 4391 3084 
Q 3944 3084 3684 2787 
Q 3425 2491 3425 1978 
L 3425 0 
L 2847 0 
L 2847 2094 
Q 2847 2600 2669 2842 
Q 2491 3084 2119 3084 
Q 1678 3084 1418 2786 
Q 1159 2488 1159 1978 
L 1159 0 
L 581 0 
L 581 3500 
L 1159 3500 
L 1159 2956 
Q 1356 3278 1631 3431 
Q 1906 3584 2284 3584 
Q 2666 3584 2933 3390 
Q 3200 3197 3328 2828 
z
" transform="scale(0.015625)"/>
      <path id="DejaVuSans-65" d="M 3597 1894 
L 3597 1613 
L 953 1613 
Q 991 1019 1311 708 
Q 1631 397 2203 397 
Q 2534 397 2845 478 
Q 3156 559 3463 722 
L 3463 178 
Q 3153 47 2828 -22 
Q 2503 -91 2169 -91 
Q 1331 -91 842 396 
Q 353 884 353 1716 
Q 353 2575 817 3079 
Q 1281 3584 2069 3584 
Q 2775 3584 3186 3129 
Q 3597 2675 3597 1894 
z
M 3022 2063 
Q 3016 2534 2758 2815 
Q 2500 3097 2075 3097 
Q 1594 3097 1305 2825 
Q 1016 2553 972 2059 
L 3022 2063 
z
" transform="scale(0.015625)"/>
     </defs>
     <use xlink:href="#DejaVuSans-4f"/>
     <use xlink:href="#DejaVuSans-72" x="78.710938"/>
     <use xlink:href="#DejaVuSans-69" x="119.824219"/>
     <use xlink:href="#DejaVuSans-67" x="147.607422"/>
     <use xlink:href="#DejaVuSans-69" x="211.083984"/>
     <use xlink:href="#DejaVuSans-6e" x="238.867188"/>
     <use xlink:href="#DejaVuSans-61" x="302.246094"/>
     <use xlink:href="#DejaVuSans-6c" x="363.525391"/>
     <use xlink:href="#DejaVuSans-20" x="391.308594"/>
     <use xlink:href="#DejaVuSans-46" x="423.095703"/>
     <use xlink:href="#DejaVuSans-72" x="473.365234"/>
     <use xlink:href="#DejaVuSans-61" x="514.478516"/>
     <use xlink:href="#DejaVuSans-6d" x="575.757812"/>
     <use xlink:href="#DejaVuSans-65" x="673.169922"/>
    </g>
   </g>
  </g>
  <g id="axes_2">
   <g id="patch_7">
    <path d="M 63 256.32 
L 453.6 256.32 
L 453.6 155.52 
L 63 155.52 
z
" style="fill: #ffffff"/>
   </g>
   <g id="matplotlib.axis_3">
    <g id="xtick_6">
     <g id="line2d_20">
      <g>
       <use xlink:href="#m9fb49039bb" x="80.754545" y="256.32" style="stroke: #000000; stroke-width: 0.8"/>
      </g>
     </g>
     <g id="text_11">
      <!-- 0 -->
      <g transform="translate(77.573295 270.918437) scale(0.1 -0.1)">
       <use xlink:href="#DejaVuSans-30"/>
      </g>
     </g>
    </g>
    <g id="xtick_7">
     <g id="line2d_21">
      <g>
       <use xlink:href="#m9fb49039bb" x="167.489013" y="256.32" style="stroke: #000000; stroke-width: 0.8"/>
      </g>
     </g>
     <g id="text_12">
      <!-- 500 -->
      <g transform="translate(157.945263 270.918437) scale(0.1 -0.1)">
       <use xlink:href="#DejaVuSans-35"/>
       <use xlink:href="#DejaVuSans-30" x="63.623047"/>
       <use xlink:href="#DejaVuSans-30" x="127.246094"/>
      </g>
     </g>
    </g>
    <g id="xtick_8">
     <g id="line2d_22">
      <g>
       <use xlink:href="#m9fb49039bb" x="254.22348" y="256.32" style="stroke: #000000; stroke-width: 0.8"/>
      </g>
     </g>
     <g id="text_13">
      <!-- 1000 -->
      <g transform="translate(241.49848 270.918437) scale(0.1 -0.1)">
       <use xlink:href="#DejaVuSans-31"/>
       <use xlink:href="#DejaVuSans-30" x="63.623047"/>
       <use xlink:href="#DejaVuSans-30" x="127.246094"/>
       <use xlink:href="#DejaVuSans-30" x="190.869141"/>
      </g>
     </g>
    </g>
    <g id="xtick_9">
     <g id="line2d_23">
      <g>
       <use xlink:href="#m9fb49039bb" x="340.957947" y="256.32" style="stroke: #000000; stroke-width: 0.8"/>
      </g>
     </g>
     <g id="text_14">
      <!-- 1500 -->
      <g transform="translate(328.232947 270.918437) scale(0.1 -0.1)">
       <use xlink:href="#DejaVuSans-31"/>
       <use xlink:href="#DejaVuSans-35" x="63.623047"/>
       <use xlink:href="#DejaVuSans-30" x="127.246094"/>
       <use xlink:href="#DejaVuSans-30" x="190.869141"/>
      </g>
     </g>
    </g>
    <g id="xtick_10">
     <g id="line2d_24">
      <g>
       <use xlink:href="#m9fb49039bb" x="427.692415" y="256.32" style="stroke: #000000; stroke-width: 0.8"/>
      </g>
     </g>
     <g id="text_15">
      <!-- 2000 -->
      <g transform="translate(414.967415 270.918437) scale(0.1 -0.1)">
       <use xlink:href="#DejaVuSans-32"/>
       <use xlink:href="#DejaVuSans-30" x="63.623047"/>
       <use xlink:href="#DejaVuSans-30" x="127.246094"/>
       <use xlink:href="#DejaVuSans-30" x="190.869141"/>
      </g>
     </g>
    </g>
   </g>
   <g id="matplotlib.axis_4">
    <g id="ytick_5">
     <g id="line2d_25">
      <g>
       <use xlink:href="#m6bdac5395d" x="63" y="251.738182" style="stroke: #000000; stroke-width: 0.8"/>
      </g>
     </g>
     <g id="text_16">
      <!-- 0 -->
      <g transform="translate(49.6375 255.537401) scale(0.1 -0.1)">
       <use xlink:href="#DejaVuSans-30"/>
      </g>
     </g>
    </g>
    <g id="ytick_6">
     <g id="line2d_26">
      <g>
       <use xlink:href="#m6bdac5395d" x="63" y="230.19383" style="stroke: #000000; stroke-width: 0.8"/>
      </g>
     </g>
     <g id="text_17">
      <!-- 50 -->
      <g transform="translate(43.275 233.993049) scale(0.1 -0.1)">
       <use xlink:href="#DejaVuSans-35"/>
       <use xlink:href="#DejaVuSans-30" x="63.623047"/>
      </g>
     </g>
    </g>
    <g id="ytick_7">
     <g id="line2d_27">
      <g>
       <use xlink:href="#m6bdac5395d" x="63" y="208.649479" style="stroke: #000000; stroke-width: 0.8"/>
      </g>
     </g>
     <g id="text_18">
      <!-- 100 -->
      <g transform="translate(36.9125 212.448698) scale(0.1 -0.1)">
       <use xlink:href="#DejaVuSans-31"/>
       <use xlink:href="#DejaVuSans-30" x="63.623047"/>
       <use xlink:href="#DejaVuSans-30" x="127.246094"/>
      </g>
     </g>
    </g>
    <g id="ytick_8">
     <g id="line2d_28">
      <g>
       <use xlink:href="#m6bdac5395d" x="63" y="187.105128" style="stroke: #000000; stroke-width: 0.8"/>
      </g>
     </g>
     <g id="text_19">
      <!-- 150 -->
      <g transform="translate(36.9125 190.904347) scale(0.1 -0.1)">
       <use xlink:href="#DejaVuSans-31"/>
       <use xlink:href="#DejaVuSans-35" x="63.623047"/>
       <use xlink:href="#DejaVuSans-30" x="127.246094"/>
      </g>
     </g>
    </g>
    <g id="ytick_9">
     <g id="line2d_29">
      <g>
       <use xlink:href="#m6bdac5395d" x="63" y="165.560776" style="stroke: #000000; stroke-width: 0.8"/>
      </g>
     </g>
     <g id="text_20">
      <!-- 200 -->
      <g transform="translate(36.9125 169.359995) scale(0.1 -0.1)">
       <use xlink:href="#DejaVuSans-32"/>
       <use xlink:href="#DejaVuSans-30" x="63.623047"/>
       <use xlink:href="#DejaVuSans-30" x="127.246094"/>
      </g>
     </g>
    </g>
   </g>
   <g id="line2d_30">
    <path d="M 80.754545 251.738182 
L 85.958613 251.62602 
L 92.723902 251.108168 
L 105.560603 249.310201 
L 106.427948 249.009441 
L 106.774886 248.914094 
L 107.121824 248.839661 
L 107.64223 248.702398 
L 108.509575 248.481952 
L 108.856513 248.245334 
L 109.723858 248.031205 
L 110.070795 248.170418 
L 110.417733 247.826662 
L 110.764671 247.884999 
L 111.111609 247.645993 
L 111.458547 247.864166 
L 111.805485 247.303166 
L 112.325892 247.484389 
L 112.846298 247.346812 
L 113.193236 247.357464 
L 113.540174 247.160267 
L 113.713643 247.184233 
L 113.887112 247.065669 
L 114.23405 247.080223 
L 114.407519 246.922126 
L 114.754457 246.976504 
L 116.142208 246.347861 
L 116.662615 246.48759 
L 117.009553 246.132402 
L 117.183022 246.166879 
L 117.703429 245.834758 
L 118.050366 245.953409 
L 118.397304 245.849306 
L 118.917711 245.502668 
L 120.131994 245.216288 
L 120.305463 245.21166 
L 120.478931 244.952586 
L 120.999338 244.728939 
L 121.172807 244.881946 
L 121.693214 244.766127 
L 121.866683 244.818519 
L 122.38709 244.53864 
L 122.734028 244.707238 
L 123.080965 244.596042 
L 123.254434 244.540167 
L 123.427903 244.250107 
L 123.601372 244.192051 
L 123.774841 244.312035 
L 124.121779 244.137403 
L 124.295248 244.383431 
L 124.468717 244.327664 
L 124.642186 244.086603 
L 124.815655 244.091264 
L 125.162593 244.22905 
L 125.856468 244.070202 
L 126.029937 244.145209 
L 126.376875 243.503532 
L 126.550344 243.444259 
L 126.897282 243.528733 
L 127.591158 243.154784 
L 127.764627 243.235339 
L 128.111565 242.618064 
L 128.631971 242.57416 
L 128.80544 242.145555 
L 128.978909 242.080426 
L 129.152378 242.312009 
L 129.499316 241.583102 
L 130.019723 241.762738 
L 130.366661 241.397658 
L 130.713599 241.577162 
L 131.234005 241.05746 
L 131.407474 241.312197 
L 131.580943 241.164207 
L 131.754412 240.76945 
L 132.10135 241.127512 
L 132.621757 240.50438 
L 132.795226 240.51949 
L 132.968695 240.792041 
L 133.315633 240.397031 
L 133.662571 240.345572 
L 133.836039 240.27632 
L 134.182977 240.583536 
L 134.703384 239.291792 
L 134.876853 239.674785 
L 135.050322 239.603375 
L 135.39726 238.995016 
L 135.744198 239.222101 
L 135.917667 239.149384 
L 136.264605 238.716248 
L 136.611542 238.663308 
L 136.785011 238.393931 
L 137.131949 238.73468 
L 137.305418 238.364127 
L 137.652356 238.313828 
L 137.999294 238.467782 
L 138.346232 238.115781 
L 138.519701 238.34983 
L 138.866639 238.202972 
L 139.040107 237.919971 
L 139.213576 237.318813 
L 139.387045 237.558388 
L 139.560514 238.014016 
L 139.733983 238.047374 
L 140.080921 237.468507 
L 140.25439 237.936178 
L 140.427859 238.081707 
L 140.774797 237.054451 
L 141.121735 237.458483 
L 141.468673 237.309995 
L 141.81561 236.249938 
L 142.162548 236.321227 
L 142.509486 235.931795 
L 142.856424 236.945945 
L 143.029893 236.635753 
L 143.203362 235.967352 
L 143.376831 236.007937 
L 143.5503 236.648387 
L 143.723769 236.694065 
L 144.070707 235.937861 
L 144.417644 236.151159 
L 144.591113 236.07533 
L 144.764582 235.627609 
L 144.938051 236.047869 
L 145.11152 236.097438 
L 145.284989 235.770921 
L 145.458458 235.820876 
L 145.805396 235.669018 
L 145.978865 235.977343 
L 146.152334 235.645485 
L 146.325803 235.05241 
L 146.672741 235.940363 
L 147.019678 235.134268 
L 147.193147 235.057473 
L 147.366616 235.379569 
L 147.887023 234.884145 
L 148.40743 235.063885 
L 148.580899 234.988784 
L 148.927837 234.422743 
L 149.101306 234.484663 
L 149.621712 233.972323 
L 149.96865 234.100324 
L 150.835995 233.132419 
L 151.182933 233.70529 
L 151.529871 233.403192 
L 151.70334 233.325329 
L 151.876809 232.949149 
L 152.050278 232.869872 
L 152.223747 232.940895 
L 152.570684 232.328297 
L 152.744153 231.942907 
L 153.091091 232.3926 
L 153.438029 231.149287 
L 153.611498 231.220332 
L 153.784967 231.604719 
L 153.958436 231.522719 
L 154.305374 230.094651 
L 154.652312 230.8755 
L 154.825781 230.791875 
L 155.172718 229.496203 
L 155.519656 230.781604 
L 155.866594 228.323874 
L 156.040063 228.725218 
L 156.213532 229.79043 
L 156.387001 229.870594 
L 156.733939 228.865943 
L 157.080877 229.194079 
L 157.254346 228.938747 
L 157.427815 229.190655 
L 157.774752 228.506293 
L 158.295159 229.451562 
L 158.642097 228.414003 
L 158.815566 228.501766 
L 158.989035 228.415416 
L 159.509442 227.624144 
L 159.85638 228.697378 
L 160.203317 227.809613 
L 160.550255 227.636114 
L 160.897193 228.192541 
L 161.070662 227.925079 
L 161.244131 227.288608 
L 161.591069 228.595731 
L 161.764538 228.328119 
L 162.111476 226.666237 
L 162.458414 227.997885 
L 162.805352 227.073665 
L 162.97882 226.797954 
L 163.152289 226.902979 
L 163.325758 227.584378 
L 163.499227 227.501589 
L 163.672696 227.03275 
L 163.846165 226.173918 
L 164.019634 225.892776 
L 164.366572 226.891607 
L 164.540041 227.004307 
L 164.886979 224.86218 
L 165.233917 227.468063 
L 165.407386 227.188058 
L 165.580854 225.905447 
L 165.754323 225.619471 
L 165.927792 226.944741 
L 166.101261 227.065834 
L 166.621668 225.394824 
L 166.968606 227.279823 
L 167.142075 226.78886 
L 167.315544 225.467832 
L 167.489013 225.38395 
L 167.662482 225.924581 
L 168.00942 224.922756 
L 168.356357 224.753598 
L 168.703295 225.432973 
L 168.876764 225.35102 
L 169.57064 224.376856 
L 169.917578 224.20897 
L 170.264516 222.296391 
L 170.611454 224.312041 
L 170.784923 224.229436 
L 171.13186 221.850328 
L 171.478798 224.344504 
L 171.825736 220.373439 
L 171.999205 220.955065 
L 172.346143 223.034299 
L 172.519612 222.497113 
L 172.693081 221.047961 
L 172.86655 220.958873 
L 173.040019 222.013075 
L 173.213488 222.156633 
L 173.733894 221.207569 
L 173.907363 221.58447 
L 174.080832 222.66186 
L 174.254301 222.112972 
L 174.601239 220.3036 
L 174.774708 219.980147 
L 174.948177 220.363112 
L 175.121646 220.039052 
L 175.295115 219.002048 
L 175.468584 218.911315 
L 175.815522 221.12184 
L 175.988991 220.797918 
L 176.162459 220.713216 
L 176.509397 221.269353 
L 176.856335 220.131594 
L 177.029804 220.777746 
L 177.203273 220.938987 
L 177.550211 220.282512 
L 177.72368 219.705964 
L 178.070618 220.774518 
L 178.244087 220.444485 
L 178.417556 219.864168 
L 178.591025 220.030286 
L 178.937962 220.617533 
L 179.111431 219.530216 
L 179.2849 219.194559 
L 179.458369 219.363499 
L 179.805307 218.688505 
L 179.978776 218.604007 
L 180.325714 217.922801 
L 180.499183 217.323499 
L 180.672652 217.236604 
L 180.846121 217.92413 
L 181.01959 217.580515 
L 181.193059 216.976241 
L 181.539996 216.802942 
L 181.713465 217.761804 
L 181.886934 217.939882 
L 182.060403 216.280775 
L 182.233872 215.93045 
L 182.58081 217.34276 
L 182.927748 215.58036 
L 183.101217 215.759506 
L 183.274686 216.741452 
L 183.448155 216.657428 
L 183.621624 216.036602 
L 183.795093 216.220499 
L 184.14203 216.05163 
L 184.488968 215.339773 
L 184.835906 215.714716 
L 185.182844 216.917574 
L 185.356313 216.562032 
L 185.529782 216.480739 
L 185.703251 216.675602 
L 185.87672 216.595088 
L 186.050189 216.237297 
L 186.223658 216.156298 
L 186.570596 216.553022 
L 186.744064 217.03327 
L 187.091002 215.752449 
L 187.43794 217.568232 
L 187.784878 216.849047 
L 187.958347 215.919134 
L 188.305285 217.189112 
L 188.478754 216.541216 
L 188.652223 215.317348 
L 188.825692 215.238182 
L 188.999161 216.311199 
L 189.17263 215.657402 
L 189.519567 216.661716 
L 189.866505 213.891638 
L 190.039974 213.811235 
L 190.386912 214.52965 
L 190.560381 213.864184 
L 190.73385 214.667412 
L 190.907319 216.358906 
L 191.080788 216.285215 
L 191.254257 215.619504 
L 191.601195 215.470128 
L 191.774664 215.09769 
L 191.948133 215.321127 
L 192.121601 214.94766 
L 192.29507 214.87279 
L 192.642008 213.519608 
L 193.162415 215.408167 
L 193.509353 214.047513 
L 193.682822 214.2774 
L 194.02976 215.352614 
L 194.203229 214.668533 
L 194.550167 214.523726 
L 195.070573 212.141882 
L 195.417511 213.542489 
L 195.764449 210.27962 
L 195.937918 210.513347 
L 196.111387 211.061273 
L 196.284856 210.9847 
L 196.458325 211.222324 
L 196.631794 210.517251 
L 196.978732 211.627121 
L 197.152201 210.28723 
L 197.325669 209.893801 
L 197.499138 209.816918 
L 197.672607 209.421995 
L 197.846076 209.344787 
L 198.019545 210.225688 
L 198.193014 210.150474 
L 198.539952 208.395132 
L 198.88689 209.850903 
L 199.060359 209.776336 
L 199.233828 209.378543 
L 199.407297 209.627595 
L 199.927704 209.405481 
L 200.101172 209.657916 
L 200.274641 209.584848 
L 200.44811 208.857245 
L 200.621579 208.783321 
L 200.795048 208.381071 
L 201.141986 208.891967 
L 201.315455 207.828722 
L 201.488924 207.75438 
L 201.662393 208.673971 
L 202.009331 207.864596 
L 202.356269 208.385296 
L 202.529738 207.645415 
L 202.703206 207.572648 
L 202.876675 207.164892 
L 203.223613 207.019005 
L 203.397082 207.956631 
L 203.570551 208.223029 
L 203.74402 207.814923 
L 203.917489 207.744294 
L 204.090958 207.334858 
L 204.437896 205.833123 
L 204.958303 207.66535 
L 205.131772 207.254137 
L 205.478709 207.801982 
L 205.652178 207.73395 
L 205.825647 207.321759 
L 205.999116 207.59835 
L 206.346054 208.501064 
L 206.519523 208.435388 
L 206.692992 208.716812 
L 207.03993 207.195312 
L 207.213399 207.477206 
L 207.560337 207.34549 
L 207.907275 205.46151 
L 208.254212 206.380769 
L 208.427681 204.906297 
L 208.60115 205.543688 
L 208.948088 207.886024 
L 209.295026 206.696623 
L 209.468495 207.698127 
L 209.641964 207.280156 
L 209.815433 206.149015 
L 209.988902 206.085037 
L 210.162371 205.664065 
L 210.33584 204.884608 
L 210.509309 204.819655 
L 210.682777 205.472179 
L 210.856246 205.408565 
L 211.029715 204.985488 
L 211.376653 206.300616 
L 211.550122 206.239166 
L 211.723591 206.539478 
L 211.89706 206.116784 
L 212.243998 206.721179 
L 212.590936 205.874112 
L 212.764405 204.355969 
L 213.111343 206.790247 
L 213.45828 204.109235 
L 213.631749 204.414859 
L 213.805218 205.456241 
L 214.152156 205.338462 
L 214.325625 206.385995 
L 214.499094 205.590589 
L 214.672563 204.054225 
L 215.019501 205.417759 
L 215.19297 205.360513 
L 215.539908 203.386907 
L 215.713377 204.445104 
L 215.886845 206.251882 
L 216.060314 205.077041 
L 216.233783 202.778473 
L 216.580721 205.283815 
L 216.75419 204.853603 
L 216.927659 204.047173 
L 217.101128 203.991087 
L 217.274597 205.064397 
L 217.621535 202.69215 
L 217.795004 203.390953 
L 217.968473 203.335398 
L 218.141942 203.658617 
L 218.315411 202.845865 
L 218.48888 203.549349 
L 218.662348 205.774213 
L 218.835817 204.96204 
L 219.009286 201.864043 
L 219.182755 201.808601 
L 219.356224 204.805871 
L 219.529693 205.136182 
L 219.876631 202.354519 
L 220.0501 203.833872 
L 220.223569 204.165794 
L 220.570507 202.910347 
L 220.917445 202.806652 
L 221.264382 201.159378 
L 221.61132 202.214801 
L 221.958258 201.33736 
L 222.131727 201.673951 
L 222.305196 201.623054 
L 222.652134 200.743342 
L 222.825603 201.08196 
L 222.999072 199.861364 
L 223.172541 199.809977 
L 223.519479 201.272681 
L 223.866416 200.390554 
L 224.213354 202.648037 
L 224.733761 199.357402 
L 224.90723 200.885067 
L 225.080699 201.232166 
L 225.427637 198.766735 
L 225.601106 199.509439 
L 225.774575 201.045882 
L 225.948044 200.603461 
L 226.294982 198.525809 
L 226.468451 202.452927 
L 226.641919 209.569845 
L 226.815388 208.736303 
L 227.509264 183.015154 
L 227.682733 190.554262 
L 228.029671 224.09854 
L 228.20314 225.678921 
L 228.550078 203.146898 
L 228.897016 183.356871 
L 229.070485 183.301037 
L 229.417422 199.319189 
L 229.76436 210.543693 
L 230.458236 195.829517 
L 230.631705 196.191843 
L 230.978643 200.167634 
L 231.325581 202.936616 
L 231.49905 201.272263 
L 231.672519 198.383858 
L 231.845987 197.529402 
L 232.192925 201.123965 
L 232.366394 201.495925 
L 232.539863 201.051164 
L 233.06027 196.847323 
L 233.233739 197.219005 
L 233.580677 199.606736 
L 233.754146 197.92814 
L 233.927615 197.891721 
L 234.101084 199.500814 
L 234.274553 198.64279 
L 234.448021 196.548317 
L 234.62149 196.924188 
L 234.794959 198.95046 
L 235.141897 193.927132 
L 235.662304 199.609447 
L 236.009242 195.402428 
L 236.182711 195.782387 
L 236.529649 194.469631 
L 237.223524 201.821636 
L 237.570462 196.766682 
L 237.9174 195.453613 
L 238.090869 195.839294 
L 238.611276 202.014757 
L 238.784745 201.987918 
L 238.958214 202.797892 
L 239.131683 201.516406 
L 239.305152 201.071295 
L 239.65209 201.018796 
L 239.825558 201.412277 
L 240.172496 204.300228 
L 240.866372 195.374227 
L 241.039841 195.347348 
L 241.560248 199.482441 
L 241.907186 199.434858 
L 242.080655 200.255407 
L 242.427592 198.520565 
L 242.601061 198.497492 
L 242.77453 199.320117 
L 242.947999 198.452083 
L 243.294937 193.751818 
L 243.641875 190.315764 
L 243.815344 191.562512 
L 244.162282 195.332175 
L 244.335751 194.461885 
L 244.50922 192.317918 
L 244.682689 191.870981 
L 244.856158 190.999257 
L 245.029627 188.002671 
L 245.203095 188.404672 
L 245.376564 191.358525 
L 245.550033 191.337259 
L 245.896971 194.275134 
L 246.07044 193.829921 
L 246.243909 194.236567 
L 246.417378 195.495918 
L 246.764316 195.459778 
L 247.111254 197.131155 
L 247.284723 199.675006 
L 247.458192 199.659396 
L 247.631661 196.228018 
L 247.805129 195.357651 
L 247.978598 196.623291 
L 248.152067 197.03518 
L 248.325536 195.737621 
L 248.499005 196.577628 
L 248.672474 196.562922 
L 248.845943 196.120647 
L 249.192881 198.232532 
L 249.36635 200.788189 
L 249.539819 199.919303 
L 249.713288 198.193532 
L 249.886757 198.60949 
L 250.233695 191.298369 
L 250.580632 197.704707 
L 250.754101 201.553716 
L 250.92757 200.685396 
L 251.274508 195.085778 
L 251.447977 193.787165 
L 251.621446 195.493765 
L 251.794915 195.483561 
L 251.968384 196.762123 
L 252.141853 201.477986 
L 252.66226 193.717367 
L 252.835729 194.138334 
L 253.182666 197.131339 
L 253.529604 201.84744 
L 254.050011 192.36318 
L 254.396949 199.665725 
L 254.743887 193.628776 
L 254.917356 193.623168 
L 255.090825 195.339917 
L 255.437763 200.928082 
L 255.611232 200.924135 
L 255.7847 197.475156 
L 255.958169 189.719062 
L 256.131638 188.422974 
L 256.305107 189.280731 
L 256.478576 191.000408 
L 256.652045 194.874477 
L 256.825514 195.302739 
L 257.172452 204.346074 
L 257.866328 187.968252 
L 258.213266 197.015658 
L 258.560203 194.861228 
L 258.733672 197.87781 
L 258.907141 197.016688 
L 259.254079 193.140993 
L 259.427548 194.004211 
L 259.601017 195.729327 
L 259.774486 198.747059 
L 259.947955 204.349642 
L 260.468362 190.142213 
L 260.641831 188.422974 
L 260.988768 198.336474 
L 261.335706 210.831745 
L 261.509175 206.529529 
L 261.856113 185.013536 
L 262.029582 183.728655 
L 262.549989 202.683609 
L 262.723458 203.549774 
L 262.896927 196.672328 
L 263.070396 195.388754 
L 263.243865 196.256236 
L 263.417334 190.243194 
L 263.590803 189.821761 
L 263.764271 196.709269 
L 263.93774 194.998034 
L 264.284678 187.710498 
L 264.631616 209.210324 
L 265.152023 192.488338 
L 265.325492 195.074965 
L 265.498961 188.21882 
L 265.67243 189.089444 
L 265.845899 206.691606 
L 266.019368 208.416549 
L 266.192837 204.994938 
L 266.366305 196.43006 
L 266.539774 179.724787 
L 267.060181 204.61889 
L 267.23365 205.48662 
L 267.580588 191.811854 
L 267.754057 190.9711 
L 267.927526 187.99193 
L 268.100995 192.713486 
L 268.274464 202.136444 
L 268.447933 200.867444 
L 268.621402 190.624672 
L 268.794871 190.64183 
L 268.968339 198.347528 
L 269.141808 198.363024 
L 269.315277 203.074398 
L 269.488746 218.878637 
L 269.662215 221.021729 
L 270.182622 160.101818 
L 270.356091 175.470263 
L 270.703029 226.19042 
L 270.876498 231.306876 
L 271.396905 181.153513 
L 271.743842 176.955182 
L 272.264249 229.667798 
L 272.437718 219.918017 
L 272.784656 184.755693 
L 273.131594 164.899591 
L 273.478532 200.10069 
L 273.82547 186.610727 
L 273.998939 193.401948 
L 274.172408 188.356408 
L 274.345876 178.247187 
L 274.692814 214.181076 
L 275.38669 187.291142 
L 275.560159 192.373549 
L 275.733628 212.180433 
L 275.907097 216.405553 
L 276.080566 197.08306 
L 276.254035 199.210735 
L 276.427504 205.956743 
L 276.600973 206.819057 
L 276.774442 204.323983 
L 276.94791 193.024626 
L 277.468317 212.377129 
L 277.815255 201.12472 
L 277.988724 199.479501 
L 278.162193 181.958249 
L 278.509131 201.23434 
L 278.6826 192.919203 
L 278.856069 212.547445 
L 279.203007 175.944144 
L 279.549944 187.262643 
L 279.723413 198.940648 
L 279.896882 201.049119 
L 280.070351 196.096323 
L 280.24382 195.29961 
L 280.417289 183.720925 
L 280.764227 206.586732 
L 280.937696 189.641521 
L 281.111165 186.784124 
L 281.284634 200.469064 
L 281.458103 197.609076 
L 281.631572 192.688324 
L 281.97851 213.797007 
L 282.325447 188.311024 
L 282.498916 203.993488 
L 282.672385 208.138489 
L 283.019323 198.749667 
L 283.366261 223.024032 
L 283.886668 191.154959 
L 284.060137 198.560759 
L 284.407075 223.961975 
L 284.754013 195.858225 
L 284.927481 207.719022 
L 285.10095 204.085847 
L 285.274419 195.574498 
L 285.447888 195.616382 
L 285.621357 192.407518 
L 285.794826 192.046287 
L 285.968295 208.322031 
L 286.141764 210.382513 
L 286.315233 184.485729 
L 286.488702 180.489687 
L 286.662171 191.871449 
L 286.83564 191.514299 
L 287.009109 196.004462 
L 287.182578 196.452357 
L 287.529515 173.978846 
L 287.702984 176.859894 
L 288.049922 204.31247 
L 288.223391 205.154802 
L 288.570329 182.380456 
L 288.743798 194.456026 
L 288.917267 190.502138 
L 289.090736 180.156994 
L 289.437674 197.445847 
L 289.611143 181.538388 
L 289.784612 189.171348 
L 289.958081 217.09778 
L 290.131549 205.193886 
L 290.305018 183.374764 
L 290.478487 180.258875 
L 290.998894 214.511024 
L 291.172363 226.810827 
L 291.519301 188.547042 
L 291.69277 199.653853 
L 291.866239 181.568768 
L 292.039708 189.511391 
L 292.213177 218.686784 
L 292.386646 217.538836 
L 292.560115 192.044565 
L 292.733584 193.278818 
L 292.907052 209.405787 
L 293.25399 215.356076 
L 293.427459 214.610058 
L 293.600928 207.228292 
L 293.774397 205.712133 
L 293.947866 208.095899 
L 294.121335 202.68971 
L 294.294804 209.350012 
L 294.468273 223.766947 
L 294.815211 184.27862 
L 295.162149 213.048041 
L 295.335618 213.088144 
L 295.682555 199.669561 
L 295.856024 195.871474 
L 296.029493 206.7072 
L 296.202962 209.830827 
L 296.376431 208.339344 
L 296.5499 217.977133 
L 296.723369 213.031499 
L 297.070307 174.875353 
L 297.243776 181.453199 
L 297.417245 203.279617 
L 297.764183 215.189195 
L 298.11112 181.462693 
L 298.284589 194.822237 
L 298.458058 184.274365 
L 298.631527 195.329874 
L 298.804996 216.948681 
L 299.151934 187.601063 
L 299.325403 209.532092 
L 299.672341 184.065133 
L 300.019279 223.982511 
L 300.192748 227.387102 
L 300.539686 191.940064 
L 300.713155 197.984548 
L 300.886623 196.930919 
L 301.060092 214.871924 
L 301.233561 215.660692 
L 301.40703 194.530593 
L 301.580499 213.894004 
L 301.753968 210.235083 
L 301.927437 189.190613 
L 302.274375 224.049626 
L 302.621313 185.084616 
L 302.968251 211.70063 
L 303.14172 190.474655 
L 303.315189 205.574741 
L 303.488657 208.927397 
L 303.662126 183.768135 
L 303.835595 190.060759 
L 304.009064 213.832412 
L 304.529471 204.905977 
L 304.876409 181.133638 
L 305.049878 179.420256 
L 305.223347 200.461513 
L 305.396816 206.661232 
L 305.570285 201.320467 
L 305.743754 211.458938 
L 306.090691 191.843434 
L 306.26416 201.596244 
L 306.437629 204.884608 
L 306.611098 206.021228 
L 306.784567 220.70831 
L 306.958036 225.381945 
L 307.131505 201.589528 
L 307.304974 198.819083 
L 307.478443 219.109651 
L 307.825381 208.593317 
L 307.99885 218.89628 
L 308.172319 206.248947 
L 308.519257 227.125632 
L 308.692725 213.468828 
L 308.866194 223.691714 
L 309.213132 210.840977 
L 309.386601 220.325408 
L 309.56007 197.370369 
L 309.907008 214.558948 
L 310.080477 201.777882 
L 310.253946 215.363835 
L 310.427415 202.274919 
L 310.600884 201.659488 
L 310.774353 222.081732 
L 311.121291 185.731833 
L 311.29476 185.49063 
L 311.641697 211.360357 
L 311.815166 203.223901 
L 311.988635 184.87992 
L 312.162104 191.796786 
L 312.335573 212.97391 
L 312.509042 199.116046 
L 312.682511 201.911551 
L 312.85598 217.89673 
L 313.202918 199.115207 
L 313.376387 184.045169 
L 313.723325 212.798544 
L 313.896794 207.50003 
L 314.243731 213.658065 
L 314.590669 207.125529 
L 314.937607 225.192586 
L 315.111076 217.286813 
L 315.284545 203.124506 
L 315.458014 208.819161 
L 315.631483 221.086659 
L 315.804952 206.661737 
L 315.978421 205.753368 
L 316.15189 226.489905 
L 316.325359 224.89668 
L 316.498828 202.069138 
L 316.845765 220.151474 
L 317.019234 199.402287 
L 317.192703 206.957438 
L 317.366172 225.823974 
L 317.71311 207.516852 
L 317.886579 211.784162 
L 318.060048 196.416922 
L 318.233517 200.047582 
L 318.406986 220.971811 
L 318.580455 205.031986 
L 318.753924 200.007227 
L 318.927393 218.588459 
L 319.274331 205.370724 
L 319.447799 205.772764 
L 319.621268 204.908099 
L 319.794737 211.627121 
L 319.968206 200.03721 
L 320.141675 208.314606 
L 320.315144 207.453407 
L 320.488613 192.488889 
L 320.835551 225.816505 
L 321.182489 198.846635 
L 321.355958 198.947386 
L 321.529427 210.51609 
L 321.702896 213.379266 
L 321.876365 214.070588 
L 322.049833 223.387962 
L 322.396771 203.852494 
L 322.57024 211.298565 
L 322.743709 211.071959 
L 322.917178 225.494374 
L 323.090647 221.89138 
L 323.264116 201.889232 
L 323.611054 220.857669 
L 323.784523 214.574292 
L 323.957992 213.442608 
L 324.131461 204.792532 
L 324.478399 216.97082 
L 324.651867 214.34944 
L 324.825336 226.962645 
L 324.998805 216.885031 
L 325.172274 198.227938 
L 325.519212 227.165639 
L 325.692681 210.967269 
L 325.86615 208.398568 
L 326.039619 220.845873 
L 326.213088 205.643471 
L 326.386557 210.427922 
L 326.560026 222.794194 
L 326.733495 220.229641 
L 326.906964 223.498838 
L 327.253901 207.675183 
L 327.42737 216.447542 
L 327.600839 209.307185 
L 327.774308 217.751321 
L 327.947777 220.698812 
L 328.121246 205.566889 
L 328.468184 221.472054 
L 328.641653 222.10815 
L 328.815122 226.153148 
L 329.16206 205.039187 
L 329.508998 210.036559 
L 329.855936 226.492396 
L 330.202873 221.858721 
L 330.549811 201.423175 
L 330.896749 227.940496 
L 331.070218 210.877852 
L 331.243687 205.462788 
L 331.417156 218.760541 
L 331.590625 218.014286 
L 331.764094 212.895246 
L 331.937563 225.539297 
L 332.111032 223.966872 
L 332.284501 206.919246 
L 332.45797 206.482593 
L 332.631438 221.458683 
L 332.804907 222.878863 
L 332.978376 213.529766 
L 333.151845 225.96862 
L 333.325314 228.440276 
L 333.498783 208.726934 
L 333.672252 206.69821 
L 333.845721 223.290484 
L 334.01919 227.072398 
L 334.192659 213.903218 
L 334.366128 212.675597 
L 334.539597 221.722877 
L 334.713066 219.432545 
L 334.886535 211.127822 
L 335.060004 214.10281 
L 335.233472 228.534925 
L 335.58041 205.302455 
L 335.927348 231.604624 
L 336.447755 206.138653 
L 336.794693 214.780833 
L 337.141631 230.691214 
L 337.3151 217.845936 
L 337.488569 217.933179 
L 337.662038 221.039965 
L 337.835507 206.312073 
L 338.008975 213.689407 
L 338.182444 228.019677 
L 338.355913 213.638775 
L 338.529382 211.751791 
L 338.702851 227.462669 
L 339.049789 210.3427 
L 339.223258 224.460218 
L 339.396727 227.473987 
L 339.743665 208.832381 
L 340.090603 222.399073 
L 340.264072 216.674847 
L 340.437541 224.969425 
L 340.611009 227.206814 
L 340.784478 213.362661 
L 340.957947 208.923141 
L 341.131416 213.811416 
L 341.478354 235.607333 
L 341.825292 212.106514 
L 341.998761 218.568679 
L 342.345699 211.970424 
L 342.519168 227.011629 
L 342.692637 231.03584 
L 343.039575 210.568113 
L 343.213043 217.604458 
L 343.386512 230.120638 
L 343.559981 231.55852 
L 344.080388 213.545907 
L 344.253857 214.11014 
L 344.427326 218.061973 
L 344.600795 229.202722 
L 344.774264 227.695894 
L 344.947733 219.029236 
L 345.121202 224.263255 
L 345.294671 223.899078 
L 345.46814 220.428822 
L 345.641609 224.064243 
L 345.815077 224.367567 
L 346.162015 231.113724 
L 346.335484 223.738406 
L 346.682422 218.471942 
L 346.855891 219.873661 
L 347.02936 230.992151 
L 347.202829 230.624718 
L 347.376298 226.608624 
L 347.549767 219.191702 
L 347.723236 217.371021 
L 347.896705 230.883812 
L 348.070174 235.403496 
L 348.243643 224.880488 
L 348.417112 221.380525 
L 348.59058 221.47568 
L 348.764049 215.704953 
L 348.937518 220.412958 
L 349.110987 231.128936 
L 349.284456 231.194332 
L 349.457925 226.502098 
L 349.631394 225.139318 
L 349.804863 220.086188 
L 350.151801 229.070641 
L 350.32527 220.594717 
L 350.498739 225.362203 
L 350.672208 233.941734 
L 351.019146 223.208513 
L 351.192614 224.103163 
L 351.366083 223.395762 
L 351.539552 223.29042 
L 351.88649 233.162122 
L 352.233428 223.667197 
L 352.406897 220.631052 
L 352.753835 236.775052 
L 353.100773 218.347247 
L 353.274242 229.809836 
L 353.447711 231.418315 
L 353.62118 222.126978 
L 354.141586 230.94038 
L 354.315055 230.447281 
L 354.488524 223.010989 
L 354.661993 227.601757 
L 354.835462 227.126917 
L 355.008931 223.311677 
L 355.1824 229.521429 
L 355.355869 223.142952 
L 355.702807 233.603588 
L 355.876276 220.526518 
L 356.049745 224.82123 
L 356.223214 235.428512 
L 356.570151 226.910043 
L 356.917089 225.660993 
L 357.090558 227.535647 
L 357.264027 225.496435 
L 357.610965 236.249411 
L 357.784434 231.045804 
L 357.957903 221.86279 
L 358.304841 233.529862 
L 358.47831 228.587739 
L 358.651779 230.395696 
L 358.825248 234.591226 
L 359.345654 224.613337 
L 359.519123 225.392168 
L 359.692592 235.082464 
L 359.866061 231.794391 
L 360.03953 223.690474 
L 360.386468 234.177846 
L 360.559937 229.460388 
L 360.906875 235.037067 
L 361.253813 226.070435 
L 361.427282 224.715298 
L 361.774219 233.918868 
L 361.947688 233.190307 
L 362.468095 228.514831 
L 362.641564 230.181886 
L 362.815033 234.970318 
L 363.161971 230.754018 
L 363.33544 233.471343 
L 363.508909 232.004453 
L 363.682378 225.636999 
L 363.855847 228.343937 
L 364.029316 236.358776 
L 364.376253 228.482841 
L 364.549722 237.001109 
L 364.723191 235.415597 
L 364.89666 229.519405 
L 365.070129 234.958728 
L 365.243598 233.551055 
L 365.417067 231.125208 
L 365.590536 233.265464 
L 365.764005 228.526905 
L 366.110943 234.949173 
L 366.284412 229.113099 
L 366.63135 234.451785 
L 366.978288 237.859472 
L 367.151756 228.473367 
L 367.325225 231.944747 
L 367.498694 239.439322 
L 367.845632 231.652273 
L 368.019101 232.70709 
L 368.19257 231.831111 
L 368.539508 235.274955 
L 368.712977 235.078369 
L 368.886446 233.131325 
L 369.233384 241.316766 
L 369.406853 232.719632 
L 369.580322 232.939287 
L 369.75379 237.638033 
L 369.927259 230.095397 
L 370.274197 237.963124 
L 370.447666 234.276327 
L 370.621135 237.061642 
L 370.794604 237.643123 
L 370.968073 235.541485 
L 371.141542 235.11035 
L 371.315011 235.947204 
L 371.48848 239.039809 
L 371.661949 235.72206 
L 372.182356 232.745432 
L 372.355824 239.342203 
L 372.529293 237.448239 
L 372.702762 237.031729 
L 372.876231 235.168513 
L 373.0497 231.759594 
L 373.223169 238.564551 
L 373.396638 240.298004 
L 373.743576 236.635753 
L 373.917045 233.423984 
L 374.090514 233.749348 
L 374.263983 237.326476 
L 374.437452 234.970788 
L 374.610921 234.135241 
L 374.78439 241.665038 
L 375.131327 236.442453 
L 375.304796 238.888078 
L 375.478265 235.141507 
L 375.651734 235.56196 
L 375.825203 239.974134 
L 375.998672 238.931319 
L 376.172141 236.362346 
L 376.34561 236.224427 
L 376.692548 240.171097 
L 377.039486 236.442983 
L 377.386424 239.992233 
L 377.559893 236.792559 
L 377.733361 235.72162 
L 377.90683 239.452376 
L 378.080299 238.794228 
L 378.253768 239.070741 
L 378.427237 243.032136 
L 378.600706 237.273795 
L 378.774175 235.42876 
L 378.947644 240.656703 
L 379.121113 237.211829 
L 379.294582 238.488208 
L 379.468051 244.407218 
L 379.814989 237.142621 
L 379.988458 239.56277 
L 380.161927 236.823141 
L 380.335395 236.811736 
L 380.508864 240.918487 
L 380.682333 242.122932 
L 380.855802 241.5157 
L 381.20274 238.826865 
L 381.376209 239.181048 
L 381.549678 239.901701 
L 381.723147 239.879166 
L 381.896616 238.303944 
L 382.243554 242.165225 
L 382.417023 237.823297 
L 382.590492 237.817184 
L 383.110898 244.552074 
L 383.284367 241.982538 
L 383.457836 236.847511 
L 383.631305 237.110602 
L 383.978243 244.684005 
L 384.325181 239.734691 
L 384.672119 240.878824 
L 384.845588 239.958499 
L 385.019057 240.278313 
L 385.192526 244.092385 
L 385.365995 243.979309 
L 385.539464 239.210418 
L 385.712932 238.253327 
L 386.05987 245.200471 
L 386.406808 239.220706 
L 386.753746 243.604358 
L 386.927215 241.752172 
L 387.100684 241.136641 
L 387.274153 242.034438 
L 387.447622 240.679376 
L 387.621091 243.722224 
L 387.79456 244.070956 
L 387.968029 241.486519 
L 388.141498 244.901531 
L 388.488435 239.685407 
L 388.661904 243.686828 
L 388.835373 241.619431 
L 389.008842 241.548825 
L 389.182311 245.876349 
L 389.529249 240.797003 
L 389.876187 244.41074 
L 390.049656 244.462667 
L 390.223125 241.972756 
L 390.396594 241.245644 
L 390.570063 244.353813 
L 390.743532 244.668862 
L 391.263938 241.940129 
L 391.610876 246.311415 
L 391.784345 245.9131 
L 391.957814 243.469564 
L 392.131283 243.531246 
L 392.478221 242.681505 
L 392.825159 244.614166 
L 392.998628 245.440809 
L 393.345566 242.61209 
L 393.692503 244.711238 
L 393.865972 244.137393 
L 394.21291 246.225189 
L 394.559848 242.381113 
L 394.733317 243.883814 
L 394.906786 243.456381 
L 395.080255 243.685188 
L 395.253724 246.645245 
L 395.427193 245.463614 
L 395.600662 242.719595 
L 395.9476 244.994195 
L 396.121069 244.741336 
L 396.294537 246.075015 
L 396.468006 246.47649 
L 396.988413 243.649124 
L 397.50882 246.691049 
L 397.682289 245.019173 
L 397.855758 244.888564 
L 398.202696 246.678851 
L 398.549634 246.175056 
L 398.723103 246.22457 
L 398.896571 244.482317 
L 399.07004 244.014905 
L 399.416978 246.856528 
L 399.590447 247.462531 
L 399.937385 244.954556 
L 400.110854 245.941528 
L 400.457792 246.337866 
L 400.631261 247.205412 
L 400.978199 245.488094 
L 401.325137 247.257963 
L 401.672074 246.265175 
L 401.845543 247.501771 
L 402.192481 247.060932 
L 402.36595 247.181453 
L 402.539419 246.42004 
L 402.712888 246.546026 
L 403.406764 247.66033 
L 403.753702 247.061556 
L 404.10064 247.727147 
L 404.274108 247.306463 
L 404.447577 248.335147 
L 404.621046 248.306733 
L 404.794515 247.318793 
L 404.967984 246.986379 
L 405.141453 246.41131 
L 405.66186 249.404119 
L 406.008798 247.70716 
L 406.182267 247.986993 
L 406.355736 247.73974 
L 406.529205 247.813951 
L 406.702674 247.434212 
L 406.876142 247.707778 
L 407.049611 248.944117 
L 407.22308 248.648664 
L 407.396549 247.306985 
L 407.570018 247.786597 
L 407.743487 248.809772 
L 407.916956 248.714522 
L 408.090425 248.95699 
L 408.263894 248.91442 
L 408.610832 247.915945 
L 408.784301 248.208365 
L 408.95777 249.269036 
L 409.131239 249.013147 
L 409.304708 248.221467 
L 409.478176 249.105031 
L 409.651645 248.908674 
L 409.825114 248.422835 
L 409.998583 249.205468 
L 410.172052 249.371261 
L 410.345521 249.16225 
L 410.51899 248.636288 
L 410.692459 248.507612 
L 411.039397 249.731748 
L 411.212866 249.534636 
L 411.386335 248.719679 
L 411.733273 249.566004 
L 411.906742 248.843955 
L 412.080211 248.941895 
L 412.253679 250.069278 
L 412.427148 250.241063 
L 412.600617 249.169722 
L 412.774086 248.901931 
L 413.121024 249.612162 
L 413.294493 249.24898 
L 413.467962 249.252516 
L 413.641431 249.939599 
L 413.988369 249.542101 
L 414.161838 249.560221 
L 414.335307 249.390791 
L 414.508776 250.2441 
L 414.682245 250.267816 
L 414.855713 249.336737 
L 415.37612 249.707677 
L 415.549589 250.425538 
L 415.723058 250.365067 
L 415.896527 249.713196 
L 416.243465 249.990404 
L 416.416934 249.828362 
L 416.590403 249.874277 
L 416.763872 250.092675 
L 416.937341 250.717378 
L 417.11081 250.568598 
L 417.284279 250.167896 
L 417.457747 250.196581 
L 417.631216 249.807191 
L 417.978154 250.422449 
L 418.151623 250.202068 
L 418.498561 250.824998 
L 418.845499 250.347744 
L 419.192437 250.59234 
L 419.365906 250.606397 
L 419.712844 250.37693 
L 419.886313 250.483934 
L 420.059781 250.442384 
L 420.406719 250.848666 
L 420.753657 250.887523 
L 420.927126 250.853229 
L 421.100595 250.597484 
L 421.274064 250.565435 
L 421.794471 251.087138 
L 421.96794 250.831494 
L 422.141409 250.814892 
L 422.488347 250.946212 
L 422.835284 250.980293 
L 423.008753 251.204433 
L 423.52916 250.952959 
L 423.876098 251.322454 
L 424.223036 250.958061 
L 424.743443 251.289871 
L 425.090381 251.256774 
L 425.957725 251.299345 
L 426.304663 251.278266 
L 426.478132 251.435258 
L 426.651601 251.4255 
L 426.82507 251.289173 
L 427.172008 251.514476 
L 427.518946 251.380996 
L 428.733228 251.513136 
L 429.080166 251.527551 
L 429.253635 251.619576 
L 429.774042 251.568843 
L 431.161793 251.647618 
L 435.845455 251.738055 
L 435.845455 251.738055 
" clip-path="url(#pf45d764c8d)" style="fill: none; stroke: #1f77b4; stroke-width: 1.5; stroke-linecap: square"/>
   </g>
   <g id="patch_8">
    <path d="M 63 256.32 
L 63 155.52 
" style="fill: none; stroke: #000000; stroke-width: 0.8; stroke-linejoin: miter; stroke-linecap: square"/>
   </g>
   <g id="patch_9">
    <path d="M 453.6 256.32 
L 453.6 155.52 
" style="fill: none; stroke: #000000; stroke-width: 0.8; stroke-linejoin: miter; stroke-linecap: square"/>
   </g>
   <g id="patch_10">
    <path d="M 63 256.32 
L 453.6 256.32 
" style="fill: none; stroke: #000000; stroke-width: 0.8; stroke-linejoin: miter; stroke-linecap: square"/>
   </g>
   <g id="patch_11">
    <path d="M 63 155.52 
L 453.6 155.52 
" style="fill: none; stroke: #000000; stroke-width: 0.8; stroke-linejoin: miter; stroke-linecap: square"/>
   </g>
   <g id="text_21">
    <!-- Frame After Windowing -->
    <g transform="translate(188.453438 149.52) scale(0.12 -0.12)">
     <defs>
      <path id="DejaVuSans-41" d="M 2188 4044 
L 1331 1722 
L 3047 1722 
L 2188 4044 
z
M 1831 4666 
L 2547 4666 
L 4325 0 
L 3669 0 
L 3244 1197 
L 1141 1197 
L 716 0 
L 50 0 
L 1831 4666 
z
" transform="scale(0.015625)"/>
      <path id="DejaVuSans-66" d="M 2375 4863 
L 2375 4384 
L 1825 4384 
Q 1516 4384 1395 4259 
Q 1275 4134 1275 3809 
L 1275 3500 
L 2222 3500 
L 2222 3053 
L 1275 3053 
L 1275 0 
L 697 0 
L 697 3053 
L 147 3053 
L 147 3500 
L 697 3500 
L 697 3744 
Q 697 4328 969 4595 
Q 1241 4863 1831 4863 
L 2375 4863 
z
" transform="scale(0.015625)"/>
      <path id="DejaVuSans-74" d="M 1172 4494 
L 1172 3500 
L 2356 3500 
L 2356 3053 
L 1172 3053 
L 1172 1153 
Q 1172 725 1289 603 
Q 1406 481 1766 481 
L 2356 481 
L 2356 0 
L 1766 0 
Q 1100 0 847 248 
Q 594 497 594 1153 
L 594 3053 
L 172 3053 
L 172 3500 
L 594 3500 
L 594 4494 
L 1172 4494 
z
" transform="scale(0.015625)"/>
      <path id="DejaVuSans-57" d="M 213 4666 
L 850 4666 
L 1831 722 
L 2809 4666 
L 3519 4666 
L 4500 722 
L 5478 4666 
L 6119 4666 
L 4947 0 
L 4153 0 
L 3169 4050 
L 2175 0 
L 1381 0 
L 213 4666 
z
" transform="scale(0.015625)"/>
      <path id="DejaVuSans-64" d="M 2906 2969 
L 2906 4863 
L 3481 4863 
L 3481 0 
L 2906 0 
L 2906 525 
Q 2725 213 2448 61 
Q 2172 -91 1784 -91 
Q 1150 -91 751 415 
Q 353 922 353 1747 
Q 353 2572 751 3078 
Q 1150 3584 1784 3584 
Q 2172 3584 2448 3432 
Q 2725 3281 2906 2969 
z
M 947 1747 
Q 947 1113 1208 752 
Q 1469 391 1925 391 
Q 2381 391 2643 752 
Q 2906 1113 2906 1747 
Q 2906 2381 2643 2742 
Q 2381 3103 1925 3103 
Q 1469 3103 1208 2742 
Q 947 2381 947 1747 
z
" transform="scale(0.015625)"/>
      <path id="DejaVuSans-6f" d="M 1959 3097 
Q 1497 3097 1228 2736 
Q 959 2375 959 1747 
Q 959 1119 1226 758 
Q 1494 397 1959 397 
Q 2419 397 2687 759 
Q 2956 1122 2956 1747 
Q 2956 2369 2687 2733 
Q 2419 3097 1959 3097 
z
M 1959 3584 
Q 2709 3584 3137 3096 
Q 3566 2609 3566 1747 
Q 3566 888 3137 398 
Q 2709 -91 1959 -91 
Q 1206 -91 779 398 
Q 353 888 353 1747 
Q 353 2609 779 3096 
Q 1206 3584 1959 3584 
z
" transform="scale(0.015625)"/>
      <path id="DejaVuSans-77" d="M 269 3500 
L 844 3500 
L 1563 769 
L 2278 3500 
L 2956 3500 
L 3675 769 
L 4391 3500 
L 4966 3500 
L 4050 0 
L 3372 0 
L 2619 2869 
L 1863 0 
L 1184 0 
L 269 3500 
z
" transform="scale(0.015625)"/>
     </defs>
     <use xlink:href="#DejaVuSans-46"/>
     <use xlink:href="#DejaVuSans-72" x="50.269531"/>
     <use xlink:href="#DejaVuSans-61" x="91.382812"/>
     <use xlink:href="#DejaVuSans-6d" x="152.662109"/>
     <use xlink:href="#DejaVuSans-65" x="250.074219"/>
     <use xlink:href="#DejaVuSans-20" x="311.597656"/>
     <use xlink:href="#DejaVuSans-41" x="343.384766"/>
     <use xlink:href="#DejaVuSans-66" x="408.167969"/>
     <use xlink:href="#DejaVuSans-74" x="441.623047"/>
     <use xlink:href="#DejaVuSans-65" x="480.832031"/>
     <use xlink:href="#DejaVuSans-72" x="542.355469"/>
     <use xlink:href="#DejaVuSans-20" x="583.46875"/>
     <use xlink:href="#DejaVuSans-57" x="615.255859"/>
     <use xlink:href="#DejaVuSans-69" x="711.882812"/>
     <use xlink:href="#DejaVuSans-6e" x="739.666016"/>
     <use xlink:href="#DejaVuSans-64" x="803.044922"/>
     <use xlink:href="#DejaVuSans-6f" x="866.521484"/>
     <use xlink:href="#DejaVuSans-77" x="927.703125"/>
     <use xlink:href="#DejaVuSans-69" x="1009.490234"/>
     <use xlink:href="#DejaVuSans-6e" x="1037.273438"/>
     <use xlink:href="#DejaVuSans-67" x="1100.652344"/>
    </g>
   </g>
  </g>
 </g>
 <defs>
  <clipPath id="pab78406b37">
   <rect x="63" y="34.56" width="390.6" height="100.8"/>
  </clipPath>
  <clipPath id="pf45d764c8d">
   <rect x="63" y="155.52" width="390.6" height="100.8"/>
  </clipPath>
 </defs>
</svg>
